<?xml version="1.0" encoding="UTF-8"?><svg xmlns="http://www.w3.org/2000/svg" viewBox="0 0 253.94442 180.93078" x="0px" y="0px" width="254px" height="181px" xmlns:xlink="http://www.w3.org/1999/xlink" version="1.1"><g id="Слой_2" data-name="Слой 2"><g id="Слой_2-2" data-name="Слой 2"><path d="M29.17508,180.487c-.19963.20535-.23879.08634-.52519.08634s-.28637.26545-.57274.26545-.2864-.18225-.57281-.18225-.28649-.31626-.573-.31626-.28665.28237-.5733.28237c-.28687,0-.28687-.40286-.57373-.40286-.28716,0-.28716.70966-.57431.70966-.28751,0-.28751-.74459-.575-.74459-.28794,0-.28794.25586-.57588.25586-.28845,0-.28845-.08467-.5769-.08467s-.28855.25458-.57709.25458c-.28813,0-.28813-.41174-.57626-.41174-.28781,0-.28781.06917-.57562.06917-.28757,0-.28757.45146-.57515.45146s-.28745-.42413-.57489-.42413-.28743.375-.57485.375-.28751-.20132-.575-.20132c-.28771,0-.28771-.22859-.57542-.22859-.288,0-.288.32157-.57608.32157-.2885,0-.2885.11364-.577.11364-.289,0-.289.15866-.57806.15866-.28854,0-.28854.0799-.57708.0799-.28822,0-.28822-.25589-.57644-.25589s-.28807.00814-.57614.00814-.2881.044-.5762.044c-.28833,0-.28833-.02345-.57667-.02345-.28877,0-.28877.09507-.57755.09507-.28909,0-.28909-.5244-.57817-.5244-.28865,0-.28865.52657-.57729.52657-.28848,0-.28848-.00029-.577-.00029s-.28862-.61382-.57724-.61382c-.28652,0-.28652.38477-.57305.38477-.28681,0-.28681-.01836-.57362-.01836-.28752,0-.28752-.37372-.575-.37372-.28867,0-.28866.27076-.57733.27076-.28957,0-.28957.29743-.57914.29743-.28857,0-.28857-.52611-.57713-.52611-.28825,0-.28825.44939-.57649.44939-.28867,0-.28867.0911-.57735.0911-.29,0-.29-.15095-.58-.15095-.28936,0-.28936-.12545-.57872-.12545s-.28937-.18905-.57874-.18905c-.29032,0-.29032.44848-.58065.44848-.28985,0-.28985-.26692-.57969-.26692-.28963,0-.28963.22416-.57926.22416-.28915,0-.28915.02555-.57829.02555-.29066,0-.29066.14247-.58131.14247-.2911,0-.2911-.39318-.5822-.39318-.29193,0-.29193.44553-.58385.44553a.93484.93484,0,0,1-.73908-.21647c-.20567-.20417.51454-.44618.51454-.736,0-.29015-.02022-.29015-.02022-.58031,0-.29059-.29508-.29059-.29508-.58118,0-.2911.27359-.2911.27359-.58221s-.21467-.2912-.21467-.5824c0-.29078-.45816-.29078-.45816-.58156,0-.29046.74088-.29046.74088-.58091,0-.29023-.32171-.29023-.32171-.58045s.13508-.29009.13508-.58018S.375,175.01442.375,174.72435s.30149-.29015.30149-.5803c0-.29036-.18509-.29036-.18509-.58072,0-.29069.14506-.29069.14506-.58138,0-.29115.0691-.29115.0691-.5823,0-.29169-.32338-.29169-.32338-.58338,0-.29119-.12095-.29119-.12095-.58239,0-.29087.17758-.29087.17758-.58175,0-.29072-.28765-.29072-.28765-.58143s.074-.29076.074-.58151c0-.291-.105-.291-.105-.582,0-.29144.02533-.29144.02533-.58287,0-.29175.57162-.29175.57162-.58349,0-.2913-.05661-.2913-.05661-.58261,0-.29113-.27765-.29113-.27765-.58227s.20748-.29127.20748-.58255c0-.28915-.15481-.28915-.15481-.57831,0-.28946-.131-.28946-.131-.57891,0-.29016.09728-.29016.09728-.58032,0-.29132-.13291-.29132-.13291-.58264,0-.29224.23951-.29224.23951-.58447,0-.29122-.09386-.29122-.09386-.58245,0-.29089-.20117-.29089-.20117-.58178,0-.29134.18251-.29134.18251-.58267,0-.29267.2793-.29267.2793-.58535,0-.292-.12069-.292-.12069-.584s-.14286-.292-.14286-.58407c0-.293-.22623-.293-.22623-.586,0-.29252.52122-.29252.52122-.585,0-.2923-.46428-.2923-.46428-.5846,0-.2918.08152-.2918.08152-.5836,0-.29333-.17091-.29333-.17091-.58666,0-.29378.53631-.29378.53631-.58756,0-.29461-.5436-.29461-.5436-.58922s.16749-.24476.37284-.456c.19964-.20536.14937-.118.43577-.118s.28637-.0214.57274-.0214.2864-.37975.57281-.37975.28649.48894.573.48894c.28665,0,.28665-.043.5733-.043.28686,0,.28686.2368.57373.2368.28716,0,.28716-.27343.57431-.27343.28751,0,.28751.03152.575.03152.28794,0,.28794-.01545.57588-.01545.28845,0,.28845-.04242.5769-.04242s.28855-.22541.57709-.22541c.28813,0,.28813.24695.57626.24695.28781,0,.28781.16811.57562.16811.28757,0,.28757.16445.57515.16445s.28745-.60276.57489-.60276.28742.64081.57485.64081.2875-.37893.575-.37893c.28771,0,.28771.24448.57542.24448.288,0,.288.05528.57608.05528.2885,0,.2885.05413.577.05413.289,0,.289-.62968.57806-.62968.28854,0,.28854.52584.57708.52584.28822,0,.28822-.223.57644-.223.28807,0,.28807-.07978.57614-.07978s.2881-.18486.5762-.18486c.28833,0,.28833-.07044.57667-.07044.28877,0,.28877.57249.57755.57249.28909,0,.28909-.15877.57817-.15877.28865,0,.28865-.10465.57729-.10465.28848,0,.28848-.38887.577-.38887s.28862.58185.57724.58185c.28652,0,.28652-.39428.573-.39428.28682,0,.28682.47167.57363.47167.28751,0,.28751-.52719.575-.52719.28866,0,.28866-.1.57733-.1.28957,0,.28957.13555.57913.13555.28857,0,.28857.00078.57714.00078.28824,0,.28824.06562.57648.06562.28868,0,.28868.1481.57736.1481.29,0,.29-.1422.58-.1422.28937,0,.28937.2318.57873.2318s.28937-.03486.57874-.03486c.29032,0,.29032.29582.58065.29582.28985,0,.28985-.17981.57969-.17981.28963,0,.28963-.40934.57926-.40934.28915,0,.28915.33986.57829.33986.29065,0,.29065.05142.58131.05142.2911,0,.2911-.37529.5822-.37529.29192,0,.29192-.00963.58385-.00963s.2645.135.47167.3407c.20567.20417.25066.17681.25066.46661,0,.29016.098.29016.098.58031,0,.29059.07233.29059.07233.58118,0,.29111-.16008.29111-.16008.58221s-.51288.2912-.51288.5824c0,.29078.19046.29078.19046.58157,0,.29045.39653.29045.39653.58091,0,.29022-.07413.29022-.07413.58044s-.17154.29009-.17154.58019.33134.29006.33134.58013-.54117.29015-.54117.58031c0,.29036.01012.29036.01012.58071,0,.29069.5901.29069.5901.58138,0,.29115-.42841.29115-.42841.5823,0,.29169.19606.29169.19606.58338,0,.2912.01724.2912.01724.5824,0,.29087.13411.29087.13411.58174,0,.29072-.45641.29072-.45641.58144s.25973.29075.25973.5815c0,.291-.09146.291-.09146.582,0,.29143.30053.29143.30053.58286,0,.29175-.5732.29175-.5732.5835,0,.2913.2899.2913.2899.5826,0,.29113-.34782.29113-.34782.58227s.11953.29127.11953.58255c0,.28916.59636.28916.59636.57832,0,.28945-.33486.28945-.33486.5789,0,.29016.01278.29016.01278.58032,0,.29132-.41775.29132-.41775.58265,0,.29223.42457.29223.42457.58446,0,.29123-.34352.29123-.34352.58245,0,.2909.45592.2909.45592.58179,0,.29133-.25.29133-.25.58267,0,.29267.37191.29267.37191.58534,0,.292-.53477.292-.53477.584s.07557.292.07557.58406c0,.293-.09735.293-.09735.586,0,.29251.62745.29251.62745.585,0,.29229-.53535.29229-.53535.58459,0,.2918.24293.2918.24293.58361,0,.29333-.36166.29333-.36166.58666,0,.29378.02543.29378.02543.58756,0,.29461.27867.28626.32841.57664C29.34507,180.21737,29.38044,180.27577,29.17508,180.487Z" fill="#dc1e2a"/><path d="M74.03335,180.4809c-.20011.20488-.23276.28511-.51916.28511s-.28637-.33493-.57274-.33493-.2864.08349-.57281.08349-.28649.119-.573.119-.28665.23294-.5733.23294c-.28687,0-.28687-.04132-.57373-.04132-.28716,0-.28716-.16291-.57431-.16291-.28751,0-.28751-.17831-.575-.17831-.28794,0-.28794-.31291-.57588-.31291-.28845,0-.28845.0998-.5769.0998s-.28855.23061-.57709.23061c-.28813,0-.28813-.302-.57626-.302-.28781,0-.28781-.05482-.57562-.05482-.28757,0-.28757.1355-.57515.1355s-.28745.25-.57489.25-.28743-.27656-.57485-.27656-.28751.47819-.575.47819c-.28771,0-.28771-.02647-.57542-.02647-.288,0-.288-.32639-.57608-.32639-.2885,0-.2885.4479-.577.4479-.289,0-.289.08868-.57806.08868-.28854,0-.28854-.01264-.57708-.01264-.28822,0-.28822-.45861-.57644-.45861s-.28807-.1585-.57614-.1585-.2881.29349-.5762.29349c-.28833,0-.28833-.21242-.57667-.21242-.28877,0-.28877-.18638-.57755-.18638-.28909,0-.28909.275-.57817.275-.28865,0-.28865.43824-.57729.43824-.28848,0-.28848-.53462-.577-.53462s-.28862.52833-.57724.52833c-.28652,0-.28652-.50459-.573-.50459-.28682,0-.28682.46626-.57363.46626-.28751,0-.28751-.39678-.575-.39678-.28866,0-.28866-.05168-.57733-.05168-.28957,0-.28957.34743-.57914.34743-.28857,0-.28857.02662-.57713.02662-.28825,0-.28825-.44848-.57649-.44848-.28867,0-.28867.01247-.57735.01247-.29,0-.29.28438-.58.28438-.28936,0-.28936.22926-.57872.22926s-.28937-.11963-.57874-.11963c-.29032,0-.29032-.23687-.58065-.23687-.28985,0-.28985.226-.57969.226-.28963,0-.28963-.06394-.57926-.06394-.28915,0-.28915-.30772-.57829-.30772-.29065,0-.29065-.11624-.58131-.11624-.2911,0-.2911.216-.5822.216-.29193,0-.29193.10751-.58385.10751s-.61379.421-.82123.21563c-.2054-.20337.08073-.5288.08073-.81784,0-.28925.19543-.28926.19543-.57851s-.0811-.28916-.0811-.57833c0-.289.36115-.289.36115-.578s-.19788-.28886-.19788-.57773-.25327-.28876-.25327-.57752-.10294-.28869-.10294-.57738c0-.28676.13169-.28676.13169-.57352,0-.287-.03917-.287-.03917-.574,0-.28732-.04819-.28732-.04819-.57464,0-.28764.40342-.28764.40342-.57529,0-.288-.08569-.288-.08569-.576,0-.28842.1354-.28842.1354-.57683,0-.28886-.04606-.28886-.04606-.57772,0-.28934.11775-.28934.11775-.57868s-.42656-.28929-.42656-.57858c0-.28892-.19467-.28892-.19467-.57784,0-.28858.67421-.28858.67421-.57717,0-.28831-.02983-.28831-.02983-.57662,0-.28807-.50472-.28807-.50472-.57614,0-.28789-.14054-.28789-.14054-.57577s.329-.28776.329-.57551-.16641-.28767-.16641-.57534.3891-.28765.3891-.5753.0054-.28768.0054-.57536-.55778-.28777-.55778-.57554.68054-.28792.68054-.57585c0-.28815-.585-.28815-.585-.57629,0-.28843.29061-.28843.29061-.57687,0-.28879-.16976-.28879-.16976-.57758,0-.28922.28631-.28922.28631-.57844,0-.28974-.03716-.28974-.03716-.57947s-.37423-.28983-.37423-.57966c0-.28941.46345-.28941.46345-.57883,0-.28909-.59565-.28909-.59565-.57817,0-.28886.33081-.28886.33081-.57772s.223-.28873.223-.57745-.4821-.2887-.4821-.5774.08594-.28879.08594-.57758c0-.289.26252-.289.26252-.578,0-.28932-.37807-.28932-.37807-.57864,0-.28979-.08626-.28979-.08626-.57957,0-.29031.25064-.29031.25064-.58063,0-.28982.20393-.28982.20393-.57965,0-.2895.04749-.2895.04749-.579,0-.28935-.38778-.28935-.38778-.5787s.63139-.28938.63139-.57877c0-.28961-.61012-.28961-.61012-.57923,0-.29006-.05186-.29006-.05186-.58013,0-.29037.02054-.29037.02054-.58074,0-.28993.15878-.28993.15878-.57986,0-.28977.47171-.28977.47171-.57953,0-.28991-.13909-.28991-.13909-.57981,0-.2878.15711-.2878.15711-.5756,0-.28809-.086-.28809-.086-.57618,0-.28879-.44548-.28879-.44548-.57758,0-.29.27123-.29.27123-.57991,0-.29085-.48895-.29085-.48895-.58171,0-.28986.52838-.28986.52838-.57971,0-.28952-.19953-.28952-.19953-.579,0-.29.38027-.29.38027-.57992,0-.2913-.31944-.2913-.31944-.58259,0-.29065.341-.29065.341-.5813s-.57462-.29066-.57462-.58132c0-.29162.28344-.29162.28344-.58323,0-.29114-.316-.29114-.316-.58228,0-.29092.02093-.29092.02093-.58184,0-.29043.25726-.29043.25726-.58086,0-.29195.25115-.29195.25115-.5839,0-.2924-.136-.2924-.136-.5848,0-.29322.13616-.29322.13616-.58644s-.499-.38791-.29413-.59767c.20012-.20489.2979.41117.5843.41117s.28637-.33518.57274-.33518.2864-.21988.57281-.21988.28649.262.573.262.28665.16631.5733.16631c.28686,0,.28686-.60421.57373-.60421.28716,0,.28716.36193.57431.36193.28751,0,.28751.26932.575.26932.28794,0,.28794-.25147.57588-.25147.28845,0,.28845.07391.5769.07391s.28855.23961.57709.23961c.28813,0,.28813-.04213.57626-.04213.28781,0,.28781-.627.57562-.627.28757,0,.28757.24294.57515.24294s.28745.3255.57489.3255.28743-.63386.57485-.63386.2875.72848.575.72848c.28771,0,.28771-.1158.57542-.1158.288,0,.288-.06623.57608-.06623.2885,0,.2885-.22839.577-.22839.289,0,.289-.20858.57806-.20858.28854,0,.28854-.09777.57708-.09777.28822,0,.28822.59567.57644.59567.28807,0,.28807-.45083.57614-.45083s.2881-.13.5762-.13c.28833,0,.28833.08924.57667.08924.28877,0,.28877.31726.57755.31726.28909,0,.28909.17572.57817.17572.28865,0,.28865.11893.57729.11893.28848,0,.28848-.72575.577-.72575s.28862.011.57724.011c.28652,0,.28652.44851.573.44851.28682,0,.28682-.31621.57363-.31621.28751,0,.28751.56091.575.56091.28866,0,.28866-.23115.57733-.23115.28957,0,.28957.24892.57913.24892.28857,0,.28857-.05188.57714-.05188.28824,0,.28824-.27836.57648-.27836.28868,0,.28868.29907.57736.29907.29,0,.29-.06893.58-.06893.28937,0,.28937-.62364.57873-.62364s.28937.51281.57874.51281c.29032,0,.29032.01308.58065.01308.28985,0,.28985-.15826.57969-.15826.28963,0,.28963.28042.57926.28042.28915,0,.28915-.27343.57829-.27343.29065,0,.29065-.12022.58131-.12022.2911,0,.2911.47257.5822.47257.29192,0,.29192-.431.58385-.431s.31388-.06608.52131.13932c.2054.20337-.15054.2259-.15054.51494,0,.28925.26073.28925.26073.5785s-.43388.28917-.43388.57834c0,.289.03916.289.03916.578s.714.28886.714.57773-.70746.28876-.70746.57752.59374.28869.59374.57737c0,.28677-.40626.28677-.40626.57353,0,.287.25665.287.25665.574,0,.28732.179.28732.179.57464,0,.28764-.15877.28764-.15877.57529,0,.288.05672.288.05672.576,0,.28842-.575.28842-.575.57683,0,.28886.60266.28886.60266.57772,0,.28934-.4742.28934-.4742.57868s.34841.28929.34841.57858c0,.28892-.29267.28892-.29267.57784,0,.28858-.02464.28858-.02464.57717,0,.28831.24953.28831.24953.57662,0,.28807.09482.28807.09482.57614,0,.28789.06968.28789.06968.57577s.20008.28776.20008.57551-.70384.28767-.70384.57534.086.28765.086.5753.62012.28768.62012.57536-.10841.28777-.10841.57554-.56237.28792-.56237.57585c0,.28814.14873.28814.14873.57629,0,.28843.108.28843.108.57686,0,.2888-.01726.2888-.01726.57759,0,.28922.10812.28922.10812.57844,0,.28974-.45758.28974-.45758.57947s.77721.28983.77721.57966c0,.28941-.61494.28941-.61494.57883,0,.28908.48946.28908.48946.57817,0,.28886-.62391.28886-.62391.57772s.44516.28872.44516.57745.23179.2887.23179.5774-.01362.28879-.01362.57758c0,.289-.664.289-.664.578,0,.28932.54839.28932.54839.57864,0,.28978-.22968.28978-.22968.57957,0,.29031-.00233.29031-.00233.58062,0,.28983.24066.28983.24066.57966,0,.2895-.38934.2895-.38934.579,0,.28935.4502.28935.4502.5787s-.32817.28938-.32817.57877c0,.28961-.09542.28961-.09542.57923,0,.29006.07466.29006.07466.58013,0,.29037.05022.29037.05022.58074,0,.28993-.03107.28993-.03107.57986,0,.28977.23746.28977.23746.57953,0,.28991-.44575.28991-.44575.57981,0,.2878.60223.2878.60223.5756,0,.28809-.09519.28809-.09519.57618,0,.28879-.55983.28879-.55983.57758,0,.29.05692.29.05692.57991,0,.29085.35856.29085.35856.58171,0,.28985.09963.28985.09963.57971,0,.28952.04252.28952.04252.579,0,.29-.17521.29-.17521.57992,0,.2913.34973.2913.34973.58259,0,.29065-.08929.29065-.08929.5813s-.56545.29066-.56545.58132c0,.29161.54147.29161.54147.58323,0,.29114-.60614.29114-.60614.58228,0,.29092.06724.29092.06724.58184,0,.29043.04494.29043.04494.58086,0,.29195.16178.29195.16178.5839,0,.2924.29147.2924.29147.58479,0,.29323-.55406.3425-.506.63176C73.86088,180.27381,74.23823,180.27114,74.03335,180.4809Z" fill="#346e93"/><path d="M118.758,180.344c-.20035.20466-.09307.42864-.37947.42864s-.28637-.29283-.57274-.29283-.2864.16577-.57281.16577-.28649-.10929-.573-.10929-.28665-.08858-.5733-.08858c-.28686,0-.28686.147-.57373.147-.28716,0-.28716-.31726-.57431-.31726-.28751,0-.28751.245-.575.245-.28794,0-.28794-.17088-.57588-.17088-.28845,0-.28845-.16812-.5769-.16812s-.28855.2845-.57709.2845c-.28813,0-.28813.23015-.57626.23015-.28781,0-.28781-.31731-.57562-.31731-.28757,0-.28757.53386-.57515.53386s-.28745-.08658-.57489-.08658-.28743-.385-.57485-.385-.2875.1308-.575.1308c-.28771,0-.28771.09533-.57542.09533-.288,0-.288.16922-.57608.16922-.2885,0-.2885-.457-.577-.457-.289,0-.289.5203-.57806.5203-.28854,0-.28854-.2122-.57708-.2122-.28822,0-.28822.237-.57644.237-.28807,0-.28807-.52721-.57614-.52721s-.2881.48489-.5762.48489c-.28833,0-.28833-.67868-.57667-.67868-.28877,0-.28877.32339-.57755.3234-.28909,0-.28909.14623-.57817.14623-.28865,0-.28865-.01447-.57729-.01447-.28848,0-.28848-.16551-.577-.16551s-.28862.07868-.57724.07868c-.28652,0-.28652.06568-.573.06568-.28682,0-.28682.09547-.57363.09547-.28751,0-.28751-.057-.575-.057-.28866,0-.28866-.0829-.57733-.0829-.28957,0-.28957.202-.57914.202-.28856,0-.28856-.3768-.57713-.3768-.28824,0-.28824.36944-.57649.36944-.28867,0-.28867-.47323-.57735-.47323-.29,0-.29.40917-.58.40917-.28936,0-.28936-.50987-.57872-.50987s-.28937.63009-.57874.63009c-.29032,0-.29032-.12139-.58065-.12139-.28985,0-.28985-.13611-.57969-.13611-.28963,0-.28963.34244-.57926.34244-.28915,0-.28915-.70393-.57829-.70393-.29065,0-.29065.622-.58131.622-.2911,0-.2911-.574-.5822-.574-.29192,0-.29192.50719-.58385.50719a.63519.63519,0,0,1-.56961-.26327c-.20475-.20147.028-.27279.028-.56s.18743-.28729.18743-.57458-.60154-.28735-.60154-.57469.02619-.28741.02619-.57482.56638-.2875.56638-.575.11039-.28759.11039-.57519-.27472-.2877-.27472-.57541.083-.28783.083-.57567-.31691-.288-.31691-.57595c0-.28815-.19157-.28815-.19157-.57629,0-.28832.19963-.28832.19963-.57663,0-.2885.3613-.2885.3613-.577,0-.28833-.16716-.28833-.16716-.57666,0-.28817.0511-.28817.0511-.57635s-.01069-.288-.01069-.57609-.40907-.28793-.40907-.57587-.01342-.28783-.01342-.57567.05623-.28776.05623-.57552.33-.28771.33-.57542.14386-.28767.14386-.57534-.03022-.28767-.03022-.57533-.2765-.28766-.2765-.57533.19713-.2877.19713-.57541-.01921-.28775-.01921-.5755-.29482-.28783-.29482-.57567.24665-.28793.24665-.57586.34668-.28806.34668-.57612-.54969-.2882-.54969-.57641c0-.28839-.13562-.28839-.13562-.57677,0-.28859.40046-.28859.40046-.57718s-.1988-.28851-.1988-.577c0-.28834.20814-.28834.20814-.57669,0-.2882.02169-.2882.02169-.57641s.22017-.2881.22017-.5762-.69819-.288-.69819-.576c0-.28611.76257-.28611.76257-.57221,0-.28637.01905-.28637.01905-.57273,0-.28666-.24546-.28666-.24546-.57332,0-.287-.19012-.287-.19012-.574,0-.28736.36328-.28736.36328-.57471,0-.28776-.16511-.28776-.16511-.57552,0-.2882-.19651-.2882-.19651-.57639,0-.28868.163-.28868.163-.57736s-.283-.28863-.283-.57726c0-.28825.4609-.28825.4609-.57651,0-.28793-.468-.28793-.468-.57585,0-.28765.39626-.28765.39626-.5753,0-.28741-.1688-.28741-.1688-.57482,0-.28723.27833-.28723.27833-.57446s-.52677-.28709-.52677-.57419.41218-.287.41218-.574-.51215-.287-.51215-.574.65408-.287.65408-.574.0068-.28711.0068-.57422c0-.28727-.291-.28727-.291-.57454,0-.28748-.14215-.28748-.14215-.575,0-.28777.02616-.28777.02616-.57554,0-.28814-.18259-.28814-.18259-.57627,0-.28856-.13068-.28856-.13068-.57712,0-.28907.73533-.28907.73533-.57814s-.18722-.28917-.18722-.57833c0-.28875-.35692-.28875-.35692-.57751,0-.28842.29436-.28842.29436-.57685,0-.2882.10753-.2882.10753-.57639s-.18778-.28807-.18778-.57613-.20457-.288-.20457-.57609.1044-.28812.1044-.57625c0-.28833-.03464-.28833-.03464-.57666,0-.28866.01833-.28866.01833-.57732,0-.28912-.03562-.28912-.03562-.57824,0-.28965-.10521-.28965-.10521-.5793,0-.28916.428-.28916.428-.57833,0-.28884.13909-.28884.13909-.57768s-.5953-.28869-.5953-.57737.24344-.28873.24344-.57745c0-.28895.30812-.28895.30812-.57791,0-.2894-.67853-.2894-.67853-.5788,0-.2897.4088-.2897.4088-.57941,0-.28927.27482-.28927.27482-.57854,0-.2891-.18841-.2891-.18841-.5782s.189-.28924.189-.57848c0-.28714-.45736-.28714-.45736-.57428,0-.28743.38624-.28743.38624-.57486,0-.28814-.53729-.28814-.53729-.57627,0-.28929.4677-.28929.4677-.57858,0-.29019-.00606-.29019-.00606-.58038,0-.28919-.3777-.28919-.3777-.57838,0-.28886.56347-.28886.56347-.57772,0-.28931-.46083-.2893-.46083-.57861,0-.29062-.13374-.29062-.13374-.58125,0-.29.61726-.29.61726-.58s-.32557-.29-.32557-.58c0-.291-.00609-.291-.00609-.58191,0-.29047.18347-.29047.18347-.58094,0-.29026-.22866-.29026-.22866-.58051,0-.28977.0525-.28977.0525-.57953,0-.29128.27677-.29128.27677-.58256,0-.29173-.5445-.29173-.5445-.58346,0-.29255.41746-.29255.41746-.5851s-.49091-.44588-.28625-.65493c.20034-.20465.35772.12818.64412.12818s.28637.14288.57274.14288.2864-.595.57281-.595.28649.4877.573.4877.28665-.09834.5733-.09834c.28686,0,.28686.28088.57373.28088.28716,0,.28716.07863.57431.07863.28751,0,.28751-.09577.575-.09577.28794,0,.28794-.36127.57588-.36127.28845,0,.28845.40719.5769.40719s.28855-.32408.57709-.32408c.28813,0,.28813-.13235.57626-.13235.28781,0,.28781-.149.57562-.149.28757,0,.28757.65645.57515.65645s.28745-.68594.57489-.68594.28743-.03393.57485-.03393.2875.657.575.657c.28771,0,.28771-.2611.57542-.2611.288,0,.288-.18753.57608-.18753.2885,0,.2885.155.577.155.289,0,.289.00376.57806.00376.28854,0,.28854.30954.57708.30954.28822,0,.28822-.52582.57644-.52582s.28807-.10438.57614-.10438.2881.47731.5762.47731c.28833,0,.28833-.403.57667-.403.28877,0,.28877.336.57755.336.28909,0,.28909-.17208.57817-.17208.28865,0,.28865-.00465.57729-.00465.28848,0,.28848.24326.577.24326s.28862-.24646.57724-.24646c.28652,0,.28652.07012.573.07012.28682,0,.28682.13262.57363.13262.28751,0,.28751.19386.575.19386.28866,0,.28866-.5321.57733-.5321.28957,0,.28957.45235.57914.45235.28856,0,.28856.13115.57713.13115.28824,0,.28824-.20538.57649-.20538.28867,0,.28867.20765.57735.20765.29,0,.29-.01993.58-.01993.28936,0,.28936-.06987.57872-.06987s.28937-.64423.57874-.64423c.29032,0,.29032.35281.58065.35281.28985,0,.28985.03469.57969.03469.28963,0,.28963.29765.57926.29765.28915,0,.28915-.29853.57829-.29853.29065,0,.29065.36362.58131.36362.2911,0,.2911-.20626.5822-.20626.29193,0,.29193.16489.58385.16489s.28128-.44705.48936-.24231c.20475.20148-.29556.19124-.29556.47849s.406.28729.406.57458-.075.28734-.075.57468.03812.28742.03812.57483.16662.28749.16662.575.08061.28759.08061.57518.16956.28771.16956.57541-.76679.28784-.76679.57567.61467.288.61467.576c0,.28814-.52054.28814-.52054.57628,0,.28832-.05152.28832-.05152.57664,0,.2885.30345.2885.30345.577,0,.28833-.12887.28833-.12887.57666s-.16626.28818-.16626.57636.26408.288.26408.57609.27941.28793.27941.57586-.50995.28784-.50995.57567.06846.28777.06846.57553.46731.2877.46731.57541-.61618.28768-.61618.57535.33256.28766.33256.57532-.10765.28767-.10765.57534.38575.2877.38575.5754.01251.28775.01251.57551-.15322.28783-.15322.57566-.04741.28793-.04741.57586-.25924.28806-.25924.57612.32648.28821.32648.57642c0,.28838-.39357.28838-.39357.57677,0,.28859.15525.28859.15525.57718s.36311.2885.36311.577c0,.28834-.42071.28834-.42071.57668s-.22558.28821-.22558.57641.45841.2881.45841.5762-.11046.288-.11046.57606c0,.2861.25892.2861.25892.57221,0,.28636-.38117.28636-.38117.57273,0,.28666.43188.28666.43188.57332,0,.287.0744.287.0744.574,0,.28735-.66733.28735-.66733.57471,0,.28775-.02465.28775-.02465.57551,0,.2882.288.2882.288.5764,0,.28868-.0267.28868-.0267.57736s.14027.28862.14027.57725c0,.28826.346.28826.346.57651,0,.28793-.32173.28793-.32173.57586,0,.28765-.46482.28765-.46482.57529,0,.28742.37166.28742.37166.57483,0,.28723.147.28723.147.57445s.1632.2871.1632.57419-.11621.287-.11621.574-.30848.287-.30848.574.00159.287.00159.574.44139.28711.44139.57423-.61352.28726-.61352.57453c0,.28749.0723.28749.0723.575,0,.28778.57159.28778.57159.57555,0,.28813-.14135.28813-.14135.57626,0,.28856-.16843.28856-.16843.57712,0,.28907-.06323.28907-.06323.57814s.43252.28917.43252.57834c0,.28875-.71753.28875-.71753.5775,0,.28843.18134.28843.18134.57685,0,.2882.03663.2882.03663.5764s.10076.28806.10076.57613-.35844.288-.35844.57608.23333.28813.23333.57626c0,.28833-.26438.28833-.26438.57666,0,.28866.09592.28866.09592.57731,0,.28912.03386.28912.03386.57824,0,.28965.46951.28965.46951.5793,0,.28917.02147.28917.02147.57833,0,.28884.14883.28884.14883.57768s-.29159.28869-.29159.57738-.40367.28872-.40367.57744c0,.289-.07325.289-.07325.57791,0,.2894.25567.2894.25567.5788,0,.28971.21682.28971.21682.57942,0,.28926.08971.28926.08971.57853,0,.2891-.52188.2891-.52188.57821s.274.28924.274.57848c0,.28714.022.28714.022.57428,0,.28743.014.28743.014.57486,0,.28813-.1397.28813-.1397.57626,0,.28929.36332.28929.36332.57858,0,.29019-.50875.29019-.50875.58038,0,.28919.65782.28919.65782.57839,0,.28886-.50735.28886-.50735.57772,0,.2893.569.2893.569.5786,0,.29063-.25154.29063-.25154.58125,0,.29.24315.29.24315.58s-.06085.29-.06085.58c0,.291-.55247.291-.55247.5819,0,.29047.4944.29047.4944.581,0,.29025.04643.29025.04643.58051,0,.28976-.48127.28976-.48127.57953,0,.29128.44748.29128.44748.58256,0,.29173-.50244.29173-.50244.58346,0,.29255.39422.29007.39851.58258C119.126,180.1757,118.96261,180.135,118.758,180.344Z" fill="#96cdef"/><path d="M163.83631,180.55359c-.20046.20455-.30712-.28178-.59352-.28178s-.28637.36528-.57274.36528-.2864-.1844-.57281-.1844-.28649-.18518-.573-.18518-.28665.00838-.5733.00838c-.28686,0-.28686.04191-.57373.04191-.28716,0-.28716.49755-.57431.49755-.28751,0-.28751-.41638-.575-.41638-.28794,0-.28794-.04638-.57588-.04638-.28845,0-.28845-.15728-.5769-.15728s-.28855.29334-.57709.29335c-.28813,0-.28813-.209-.57626-.209-.28781,0-.28781.08093-.57562.08093-.28757,0-.28757.10323-.57515.10323s-.28745.13237-.57489.13237-.28743.30132-.57485.30132-.2875-.51337-.575-.51337c-.28771,0-.28771-.09925-.57542-.09925-.288,0-.288-.03943-.57608-.03943-.2885,0-.2885.24618-.577.24618-.289,0-.289-.00736-.57806-.00736-.28854,0-.28854.18829-.57708.18829-.28822,0-.28822.03558-.57644.03558s-.28807.00369-.57614.00369-.2881.14051-.5762.14051c-.28833,0-.28833-.11323-.57667-.11323-.28877,0-.28877-.18765-.57755-.18765-.28909,0-.28909.09171-.57817.09171-.28865,0-.28865-.25552-.57729-.25552-.28848,0-.28848.45868-.577.45868s-.28862-.07323-.57724-.07323c-.28652,0-.28652-.32073-.573-.32073-.28682,0-.28682-.31849-.57363-.31849-.28751,0-.28751.03487-.575.03487-.28866,0-.28866-.03284-.57733-.03284-.28957,0-.28957.625-.57913.625-.28857,0-.28857.02242-.57714.02242-.28824,0-.28824-.17158-.57648-.17158-.28868,0-.28868-.05543-.57736-.05543-.29,0-.29-.2832-.58-.2832-.28937,0-.28937.41026-.57873.41026s-.28937-.0987-.57874-.0987c-.29032,0-.29032-.24567-.58065-.24567-.28985,0-.28985-.14159-.57969-.14159-.28963,0-.28963.182-.57926.182-.28915,0-.28915-.19278-.57829-.19278-.29065,0-.29065.53379-.58131.53379-.2911,0-.2911-.35749-.5822-.35749-.29192,0-.29192.53663-.58385.53663s-.35439-.18325-.56273-.38773c-.20448-.20068.20423-.265.20423-.5515s-.06816-.28657-.06816-.57314.16213-.28665.16213-.57331.06882-.28673.06882-.57347-.33-.28684-.33-.57367.13992-.28694.13992-.57388-.37628-.287-.37628-.57411.14154-.28718.14154-.57435.265-.28732.265-.57463-.52088-.28745-.52088-.57491-.05371-.2876-.05371-.57521c0-.28777-.00352-.28777-.00352-.57554,0-.28795.74836-.28795.74836-.57589s-.58648-.2879-.58648-.5758c0-.28775-.135-.28775-.135-.57551s-.01572-.28762-.01572-.57524.56344-.2875.56344-.575-.21518-.28738-.21518-.57477-.12433-.28729-.12433-.57457.46863-.2872.46863-.5744-.38992-.28712-.38992-.57424.41359-.28706.41359-.57412-.497-.287-.497-.574.301-.287.301-.57393.03526-.28693.03526-.57387-.22274-.28692-.22274-.57384-.3675-.28692-.3675-.57384.03347-.28693.03347-.57386.5187-.287.5187-.57391.07905-.287.07905-.574-.40907-.287-.40907-.5741-.0446-.28712-.0446-.57424-.02112-.2872-.02112-.57439-.02025-.2873-.02025-.5746.292-.28741.292-.57482-.13623-.28754-.13623-.57508.38367-.28768.38367-.57537-.47118-.28784-.47118-.57569c0-.288-.07276-.288-.07276-.576,0-.28821.26685-.28821.26685-.57641,0-.288-.0468-.288-.0468-.57606s.16956-.28789.16956-.57577-.07157-.28775-.07157-.5755-.08626-.28763-.08626-.57527.08939-.28754.08939-.57508.31878-.28747.31878-.57494-.33066-.28741-.33066-.57482-.23508-.28738-.23508-.57476.49386-.28737.49386-.57473-.15885-.28738-.15885-.57475.03719-.2874.03719-.57481-.51763-.28746-.51763-.57492.20142-.28753.20142-.57507.29816-.28764.29816-.57527-.05024-.28777-.05024-.57553c0-.28791-.23968-.28791-.23968-.57583,0-.28809-.179-.28809-.179-.57617,0-.2883.6722-.2883.6722-.57659s-.46157-.28821-.46157-.57642c0-.288-.22049-.288-.22049-.57609s.27807-.28791.27807-.57582.28188-.28781.28188-.57561-.31745-.28774-.31745-.57547c0-.28581-.09929-.28581-.09929-.57162,0-.28607-.23951-.28607-.23951-.57214,0-.28637.57748-.28637.57748-.57274,0-.28669-.40342-.28669-.40343-.57339,0-.28706.4836-.28706.4836-.57412,0-.28746-.6165-.28746-.6165-.57492,0-.2879.70814-.2879.70814-.57581,0-.28838-.21807-.28838-.21807-.57676s-.2644-.28833-.2644-.57667c0-.288.048-.288.048-.57592,0-.28763.18088-.28763.18088-.57526,0-.28735.0275-.28735.0275-.57471,0-.28711-.09579-.28711-.09579-.57423,0-.28694.20631-.28694.20631-.57387s-.5022-.2868-.5022-.5736.571-.28672.571-.57344-.11946-.28669-.11946-.57339-.557-.28673-.557-.57345.0737-.28682.0737-.57364.11244-.287.11244-.57394c0-.2872.35254-.2872.35254-.57439,0-.28747-.04127-.28747-.04127-.575,0-.28784-.07164-.28784-.07164-.57567,0-.28827-.40873-.28827-.40873-.57653,0-.28878.37712-.28878.37712-.57755s-.35242-.28887-.35242-.57774c0-.28846.07623-.28846.07623-.57691,0-.28813.61326-.28813.61326-.57626,0-.28791-.50886-.28791-.50886-.57581s.1034-.28777.1034-.57554-.31953-.28774-.31953-.57549.22724-.28783.22724-.57566c0-.288.25491-.288.25491-.57607,0-.28837.01029-.28837.01029-.57673,0-.28882-.299-.28882-.299-.57764,0-.28935-.22085-.28935-.22085-.57871,0-.28887.51136-.28887.51136-.57773,0-.28855-.34408-.28855-.34408-.57709s.31433-.2884.31433-.57679-.0979-.28843-.0979-.57685c0-.28866-.10249-.28866-.10249-.57732,0-.2891-.15721-.2891-.15721-.5782,0-.28941.61855-.28941.61855-.57882,0-.289-.632-.289-.632-.578,0-.2888.27848-.2888.27848-.57761s.10477-.28894.10477-.57788c0-.28685-.47932-.28685-.47932-.5737,0-.28713.30514-.28713.30514-.57427,0-.28784-.197-.28784-.197-.57567,0-.289.33484-.289.33484-.578,0-.28989-.08949-.28989-.08949-.57978,0-.2889-.14821-.2889-.14821-.57779,0-.28857.31032-.28857.31032-.57714,0-.289-.485-.289-.485-.578,0-.29033.59746-.29033.59746-.58066,0-.28969-.40743-.28969-.40743-.57938s.54669-.28969.54669-.57939c0-.29065-.34034-.29065-.34034-.5813,0-.29018-.25411-.29018-.25411-.58035,0-.29.02856-.29.02856-.57991,0-.28947.53056-.28947.53056-.57894,0-.291-.14858-.291-.14858-.582,0-.29143-.10635-.29143-.10635-.58286,0-.29225.21176-.29225.21176-.5845s-.33938-.19455-.13483-.40328c.20046-.20455.10148-.22605.38788-.22605s.28637-.16723.57274-.16723.2864.23963.57281.23963.28649-.16792.573-.16792c.28665,0,.28665.28159.5733.28159.28687,0,.28687-.50954.57373-.50954.28716,0,.28716.30105.57431.30105.28751,0,.28751.19942.575.19942.28794,0,.28794-.46751.57588-.46751.28845,0,.28845.68535.5769.68535s.28855-.4219.57709-.4219c.28813,0,.28813.24552.57626.24552.28781,0,.28781-.30836.57562-.30836.28757,0,.28757.25372.57515.25372s.28745-.08871.57489-.08871.28743.30621.57485.30621.28751-.21621.575-.21621c.28771,0,.28771.08162.57542.08162.288,0,.288-.093.57608-.093.2885,0,.2885-.509.577-.509.289,0,.289.40443.57806.40443.28854,0,.28854.09364.57708.09364.28822,0,.28822-.38364.57644-.38364s.28807-.03367.57614-.03367.2881.10218.5762.10218c.28833,0,.28833.336.57667.336.28877,0,.28877-.13682.57755-.13682.28909,0,.28909-.04643.57817-.04643.28865,0,.28865.28034.57729.28034.28848,0,.28848-.16381.577-.16381s.28862.32545.57724.32545c.28652,0,.28652-.02245.57305-.02245.28681,0,.28681-.511.57362-.511.28751,0,.28751-.04978.575-.04978.28866,0,.28866.4781.57733.4781.28957,0,.28957-.36739.57914-.36739.28857,0,.28857.44137.57713.44137.28825,0,.28825-.11963.57649-.11963.28867,0,.28867-.5101.57735-.5101.29,0,.29.58885.58.58885.28936,0,.28936-.588.57872-.588s.28937.08477.57874.08477c.29032,0,.29032-.01743.58065-.01743.28985,0,.28985.31628.57969.31628.28963,0,.28963-.22487.57926-.22487.28915,0,.28915.46142.57829.46142.29065,0,.29065-.27164.58131-.27164.2911,0,.2911.26108.5822.26108.29193,0,.29193-.68831.58385-.68831a.8517.8517,0,0,1,.686.25708c.20448.20068-.185.39065-.185.67716s-.133.28657-.133.57314.54555.28665.54555.57331-.71166.28673-.71166.57347.57433.28684.57433.57367-.43626.28694-.43626.57388.28222.287.28222.57411.20247.28718.20247.57436.10743.28731.10743.57462-.12379.28745-.12379.57491.15507.2876.15507.57521c0,.28777-.526.28777-.526.57554,0,.28795.24462.28795.24462.57589s-.29266.2879-.29266.5758c0,.28775-.159.28775-.159.57551s.46844.28762.46844.57524-.0947.2875-.0947.575.00172.28738.00172.57477-.21736.28729-.21736.57457.37726.2872.37726.5744-.08572.28712-.08572.57424.08814.28706.08814.57412.12352.287.12352.574-.62333.287-.62333.57393-.00638.28693-.00638.57387.1.28692.1.57384.33868.28692.33868.57384-.21029.28693-.21029.57386-.19531.287-.19531.57391.15951.287.15951.574.26076.28705.26076.5741-.44073.28712-.44073.57424-.06672.2872-.06672.5744.63264.28729.63264.57459-.002.28741-.002.57482-.44.28754-.44.57508.31528.28768.31528.57537-.25161.28784-.25161.57569c0,.288.24714.288.24714.576,0,.28821.21325.28821.21325.57641,0,.288.00767.288.00767.57606s-.7009.28789-.7009.57577.49638.28775.49638.5755-.277.28763-.277.57527-.19232.28754-.19232.57508.29462.28747.29462.57494-.17369.28741-.17369.57482-.15795.28738-.15795.57476.40905.28737.40905.57473.08726.28738.08726.57475.20809.28741.20809.57481-.56163.28746-.56163.57492.00122.28753.00122.57507.08142.28764.08142.57527.18117.28777.18117.57553c0,.28791.19873.28791.19873.57583,0,.28809.02425.28809.02425.57617,0,.2883-.50912.2883-.50912.57659s.44257.28821.44257.57642c0,.288-.06765.288-.06765.57609s-.2488.28791-.2488.57582.28188.28781.28188.57562-.385.28773-.385.57546c0,.28581.21464.28581.21464.57162,0,.28607-.37313.28607-.37313.57214,0,.28637.36729.28637.36729.57274,0,.28669.12408.28669.12408.57339,0,.28706-.17129.28706-.17129.57412,0,.28746.44445.28746.44445.57492,0,.2879-.61186.2879-.61186.57581,0,.28838.04843.28838.04843.57676s-.05721.28833-.05721.57667c0,.288-.13821.288-.13821.57592,0,.28763.55826.28763.55826.57526,0,.28735-.315.28735-.315.57471,0,.28711.49384.28711.49384.57423,0,.28694-.22247.28694-.22247.57387s.05905.2868.05905.5736-.504.28672-.504.57344.0945.28669.0945.57339.43147.28673.43147.57345-.46269.28682-.46269.57364.55254.287.55254.57394c0,.2872-.23491.2872-.23491.57439,0,.28747-.44414.28747-.44414.575,0,.28784.3447.28784.3447.57567,0,.28827.1656.28827.1656.57653,0,.28878-.42665.28878-.42665.57755s.48406.28887.48406.57774c0,.28846-.15081.28846-.15081.57691,0,.28813.22895.28813.22895.57626,0,.28791-.30022.28791-.30022.57581s.2731.28777.2731.57554-.26719.28774-.26719.57549.13355.28783.13355.57566c0,.288-.1809.288-.1809.57607,0,.28837.20325.28837.20325.57673,0,.28882.13728.28882.13728.57764,0,.28935-.20987.28935-.20987.57871,0,.28887.30325.28887.30325.57773,0,.28855-.70391.28855-.70391.57709s-.0124.2884-.0124.57679.64293.28843.64293.57685c0,.28866-.062.28866-.062.57732,0,.2891-.40611.2891-.40611.5782,0,.28941-.21218.28941-.21218.57882,0,.289.56817.289.56817.57795,0,.2888.06743.2888.06743.57761s-.1345.28894-.1345.57788c0,.28685-.02054.28685-.02054.5737,0,.28713.18252.28713.18252.57427,0,.28784-.55572.28784-.55572.57567,0,.289.07191.289.07191.578,0,.28989-.031.28989-.031.57978,0,.2889.43345.2889.43345.57779,0,.28857.1142.28857.1142.57714,0,.289-.33342.289-.33342.578,0,.29033-.2714.29033-.2714.58066,0,.28969.18238.28969.18238.57938s-.2.28969-.2.57939c0,.29065.04536.29065.04536.5813,0,.29018.26339.29018.26339.58035,0,.29.09145.29.09145.57991,0,.28947-.07326.28947-.07326.57894,0,.291-.17012.291-.17012.582,0,.29143.04193.29143.04193.58286,0,.29225-.1659.34815-.10046.633C163.67708,180.313,164.04086,180.34486,163.83631,180.55359Z" fill="#dc1e2a"/><path d="M208.71089,180.56368c-.20049.20452-.3174-.17138-.6038-.17138s-.28637.21741-.57274.21741-.2864.16462-.57281.16462-.28649-.30308-.573-.30308c-.28665,0-.28665-.09577-.5733-.09577-.28686,0-.28686.51313-.57373.51313-.28716,0-.28716-.65115-.57431-.65115-.28751,0-.28751.52648-.575.52648-.28794,0-.28794-.36846-.57588-.36846-.28845,0-.28845-.00959-.5769-.00959s-.28855-.03995-.57709-.03995c-.28813,0-.28813.48147-.57626.48147-.28781,0-.28781-.076-.57562-.076-.28757,0-.28757-.36887-.57515-.36887s-.28745.3334-.57489.3334-.28742-.32049-.57485-.32049-.2875.21833-.575.21833c-.28771,0-.28771.268-.57542.268-.288,0-.288-.468-.57608-.468-.2885,0-.2885-.01137-.577-.01137-.289,0-.289.3166-.57806.3166-.28854,0-.28854-.07142-.57708-.07142-.28822,0-.28822-.31239-.57644-.31239s-.28807-.03545-.57614-.03545-.2881-.01756-.5762-.01756c-.28833,0-.28833.46213-.57667.46213-.28877,0-.28877-.57839-.57755-.57839-.28909,0-.28909.623-.57817.623-.28865,0-.28865-.61821-.57729-.61821-.28848,0-.28848.51452-.577.51452s-.28862-.12132-.57724-.12132c-.28652,0-.28652-.086-.573-.086-.28682,0-.28682.26858-.57363.26858-.28751,0-.28751-.01073-.575-.01073-.28866,0-.28866.03812-.57733.03812-.28957,0-.28957-.56731-.57913-.56731-.28857,0-.28857.60471-.57714.60471-.28824,0-.28824-.53039-.57648-.53039-.28868,0-.28868.43154-.57736.43154-.29,0-.29-.36753-.58-.36753-.28937,0-.28937.13961-.57873.13961s-.28937-.29032-.57874-.29032c-.29032,0-.29032-.05606-.58065-.05606-.28985,0-.28985.66477-.57969.66477-.28963,0-.28963.02491-.57926.02491-.28915,0-.28915-.10763-.57829-.10763-.29065,0-.29065.01956-.58131.01956-.2911,0-.2911-.46765-.5822-.46765-.29192,0-.29192.36993-.58385.36993s-.28509.00389-.49307-.201c-.20484-.20175-.10992-.19535-.10992-.48287s.12017-.28738.12017-.57477-.44455-.28726-.44455-.57452.47851-.28714.47851-.57429.24325-.287.24325-.57407-.27142-.28693-.27142-.57386.17245-.28683.17245-.57367-.201-.28674-.201-.57348.01044-.28665.01044-.57331.28738-.28657.28738-.57315-.3997-.2865-.3997-.573.013-.28643.013-.57287.31983-.28638.31983-.57276-.68716-.28632-.68716-.57265.53237-.28627.53237-.57255-.4357-.28624-.4357-.57248.17524-.28621.17524-.57242.40579-.28619.40579-.57237-.35709-.28617-.35709-.57233.36308-.28616.36308-.57232-.4399-.28615-.4399-.5723-.13775-.28616-.13775-.57232.48437-.28617.48437-.57234.13374-.28619.13374-.57239-.11775-.28622-.11775-.57244-.2964-.28625-.2964-.57251.303-.2863.303-.5726-.38543-.28636-.38543-.57271.21868-.28642.21868-.57283-.44242-.28649-.44242-.573.545-.28656.545-.57313-.52614-.28665-.52614-.5733.67739-.28675.67739-.57349-.06343-.28685-.06343-.57371-.50652-.287-.50652-.57393.262-.28709.262-.57418.1566-.28722.1566-.57445-.21056-.28736-.21056-.57473-.01736-.28752-.01736-.575c0-.28768.29129-.28768.29129-.57536,0-.28786-.18059-.28786-.18059-.57571s.04269-.28781.04269-.57563c0-.28766.24462-.28766.24462-.57533s-.04288-.28753-.04288-.57507-.43631-.28741-.43631-.57482.01313-.2873.01313-.57459.0343-.2872.0343-.5744.181-.28711.181-.57422-.39379-.287-.39379-.57407.01024-.287.01024-.57394.50145-.28691.50145-.57383-.51668-.28687-.51668-.57375.06981-.28685.06981-.57369.21481-.28684.21481-.57367.31342-.28683.31342-.57366-.19963-.28685-.19963-.57369.27665-.28687.27665-.57374-.46154-.2869-.46154-.57381.14665-.287.14665-.57392-.08621-.287-.08621-.57406.25069-.28711.25069-.57422-.22763-.28721-.22763-.57442-.37692-.28733-.37692-.57465.22846-.28745.22846-.5749.52406-.2876.52406-.57519c0-.28776-.49785-.28776-.49785-.57552,0-.28793.4121-.28793.4121-.57587,0-.28811-.63063-.28811-.63063-.57622,0-.28795.34743-.28795.34743-.57589s-.07853-.2878-.07853-.57559.37525-.28766.37525-.57533-.07658-.28754-.07658-.57509.01238-.28746.01238-.57491-.189-.28738-.189-.57476-.31471-.28732-.31471-.57465.59215-.28729.59215-.57458-.62528-.28728-.62528-.57455.21283-.28729.21283-.57458-.2097-.28731-.2097-.57463.0933-.28737.0933-.57474-.11081-.28745-.11081-.5749.07306-.28755.07306-.5751.13149-.28767.13149-.57535.49259-.28782.49259-.57565c0-.288-.15976-.288-.15976-.576,0-.2882.17734-.2882.17734-.57641s-.07585-.28812-.07585-.57624c0-.288.05147-.288.05147-.57592s-.306-.28782-.306-.57564-.1423-.28772-.1423-.57544.2955-.28764.2955-.57528c0-.28573.1267-.28573.1267-.57145,0-.286.04591-.286.04591-.572,0-.28628-.211-.28628-.211-.57256,0-.2866-.33088-.2866-.33088-.57321,0-.287.18365-.287.18365-.57395,0-.28737.275-.28737.275-.57475,0-.28781-.641-.28781-.641-.57563,0-.28829.12137-.28829.12137-.57658s-.14861-.28825-.14861-.57649c0-.28787.40966-.28787.40966-.57574,0-.28755.32885-.28755.32885-.57509,0-.28727-.02587-.28727-.02587-.57453,0-.287-.293-.287-.293-.57406,0-.28685-.10472-.28685-.10472-.5737s-.34122-.28671-.34122-.57342.76472-.28663.76472-.57326-.31244-.28661-.31244-.57322-.22756-.28664-.22756-.57328.0411-.28673.0411-.57346-.14883-.28688-.14883-.57377c0-.2871.43815-.2871.43815-.5742,0-.28739-.4459-.28739-.4459-.57478,0-.28775.185-.28775.185-.5755,0-.28817-.00154-.28817-.00154-.57635,0-.28869.08369-.28869.08369-.57737s.11778-.28878.11778-.57757c0-.28836-.19619-.28836-.19619-.57673,0-.288-.0067-.288-.0067-.57609,0-.28781-.25445-.28781-.25445-.57562s.69521-.28768.69521-.57537-.22357-.28766-.22357-.57531.0368-.28775.0368-.57549c0-.28795-.12465-.28795-.12465-.57589,0-.28828-.326-.28828-.326-.57655,0-.28874.38753-.28874.38753-.57747,0-.28926-.4177-.28926-.4177-.57853,0-.28878.72665-.28878.72665-.57756,0-.28845-.6889-.28845-.6889-.57691,0-.28831.55017-.28831.55017-.57661s-.26374-.28834-.26374-.57668c0-.28857.2535-.28857.2535-.57713,0-.289.03736-.289.03736-.578,0-.28932-.68692-.28932-.68692-.57865,0-.28888.70782-.28888.70782-.57776,0-.28872-.448-.28872-.448-.57744s.4767-.28885.4767-.57771c0-.28676-.6479-.28676-.6479-.57351,0-.28705.01616-.28705.01616-.5741,0-.28775.32049-.28775.32049-.5755,0-.2889.07543-.2889.07543-.57781,0-.2898.12772-.2898.12772-.57961,0-.2888-.43322-.2888-.43322-.57761,0-.28848.44953-.28848.44953-.57695,0-.28892-.36552-.28892-.36552-.57783,0-.29024.43772-.29024.43772-.58048,0-.2896.06558-.2896.06558-.5792s-.54394-.28961-.54394-.57921c0-.29057-.15462-.29057-.15462-.58113,0-.29009.45012-.29009.45012-.58017,0-.28987-.30452-.28987-.30452-.57974,0-.28938-.15587-.28938-.15587-.57876,0-.29089.33289-.29089.33289-.58179,0-.29134-.28834-.29134-.28834-.58268,0-.29216.36022-.29216.36022-.58432s-.16744-.26126.03708-.4699c.20049-.20452.16967.155.45607.155s.28637-.356.57274-.356.2864-.03572.57281-.03572.28649-.26049.573-.26049c.28665,0,.28665.31851.5733.31851.28687,0,.28687-.1878.57373-.1878.28716,0,.28716.47176.57431.47176.28751,0,.28751-.378.575-.378.28794,0,.28794-.174.57588-.174.28845,0,.28845.48327.5769.48327s.28855-.202.57709-.202c.28813,0,.28813-.13083.57626-.13083.28781,0,.28781.46174.57562.46174.28757,0,.28757-.041.57515-.041s.28745-.31887.57489-.31887.28743.46068.57485.46068.28751-.2977.575-.2977c.28771,0,.28771.00093.57542.00093.288,0,.288-.01057.57608-.01057.2885,0,.2885-.13779.577-.13779.289,0,.289.46281.57806.46281.28854,0,.28854-.17893.57708-.17893.28822,0,.28822-.40494.57644-.40494s.28807.30983.57614.30983.2881-.33144.5762-.33144c.28833,0,.28833-.033.57667-.033.28877,0,.28877-.0923.57755-.0923.28909,0,.28909.20724.57817.20724.28865,0,.28865-.23426.57729-.23426.28848,0,.28848.58115.577.58115s.28862-.04782.57724-.04782c.28652,0,.28652-.2267.573-.2267.28681,0,.28681.00924.57362.00924.28752,0,.28752.1412.575.1412.28867,0,.28867-.08545.57733-.08545.28957,0,.28957-.38912.57914-.38912.28857,0,.28857.47508.57713.47508.28825,0,.28825-.00931.57649-.00931.28867,0,.28867-.36277.57735-.36277.29,0,.29-.09254.58-.09254.28936,0,.28936.471.57872.471s.28937-.0623.57874-.0623c.29032,0,.29032.17484.58065.17484.28985,0,.28985-.0323.57969-.0323.28963,0,.28963-.54313.57926-.54313.28915,0,.28915.64453.57829.64453.29066,0,.29066-.30213.58131-.30213.2911,0,.2911.18083.5822.18083.29193,0,.29193-.22574.58385-.22574s.63632-.40841.8443-.20357c.20484.20175-.55852.552-.55852.83948s.28714.28739.28714.57477-.06829.28726-.06829.57452-.22921.28715-.22921.5743.44843.287.44843.57407-.03885.28693-.03885.57386-.33291.28683-.33291.57366.08932.28674.08932.57348-.00492.28666-.00492.57331.4069.28658.4069.57316-.25272.2865-.25272.573.20247.28644.20247.57288-.00266.28637-.00266.57275-.0681.28633-.0681.57265.246.28628.246.57256-.1554.28624-.1554.57248-.235.28621-.235.57242-.02545.28618-.02545.57237-.26355.28616-.26355.57233.37511.28615.37511.57231-.25041.28615-.25041.57231.44484.28616.44484.57232-.36462.28617-.36462.57234.11657.28619.11657.57238-.06144.28622-.06144.57244.34252.28626.34252.57252-.37337.2863-.37337.5726-.27357.28635-.27357.57271.6965.28641.6965.57283-.05445.28648-.05445.573.08971.28656.08971.57312-.52482.28665-.52482.5733.34584.28675.34584.5735.06343.28685.06343.5737-.586.287-.586.57393-.05127.2871-.05127.57419.60237.28722.60237.57444-.54352.28737-.54352.57474.52049.28751.52049.575c0,.28769.06545.28769.06545.57537,0,.28785-.26323.28785-.26323.57571s.33558.28781.33558.57562-.74927.28767-.74927.57533.72.28754.72.57507-.19954.28741-.19954.57482-.1897.2873-.1897.5746.18948.2872.18948.5744-.06614.28711-.06614.57422-.22547.287-.22547.57407.43366.287.43366.57393-.26677.28692-.26677.57383-.15836.28688-.15836.57375.1791.28685.1791.5737.08523.28683.08523.57367-.40274.28683-.40274.57366.17636.28684.17636.57368-.1847.28687-.1847.57374-.05024.28691-.05024.57382.1867.287.1867.57392.18611.287.18611.57406-.23885.28711-.23885.57422.44655.28721.44655.57442.17047.28732.17047.57464-.33206.28746-.33206.57491.10074.28759.10074.57519c0,.28776-.16793.28776-.16793.57551,0,.28794-.24547.28794-.24547.57587,0,.28812.22071.28812.22071.57623,0,.288-.29822.288-.29822.57589s.582.28779.582.57559-.45782.28766-.45782.57532-.19272.28755-.19272.5751.54333.28745.54333.57491-.18093.28737-.18093.57475-.311.28733-.311.57465.15384.28729.15384.57458.47046.28728.47046.57456-.66156.28729-.66156.57457.0521.28732.0521.57464.04763.28737.04763.57474-.087.28745-.087.5749.27917.28754.27917.57509.43455.28768.43455.57535c0,.28783-.33064.28783-.33064.57565,0,.288.03565.288.03565.576,0,.28821-.43315.28821-.43315.57641s.02107.28813.02107.57625c0,.288.23773.288.23773.57591s.23078.28783.23078.57565-.35506.28772-.35506.57543-.08707.28765-.08707.57529c0,.28572.06717.28572.06717.57145,0,.286.46207.286.46207.572,0,.28627-.25273.28627-.25273.57255,0,.28661-.15238.28661-.15238.57322,0,.287.15861.287.15861.57394,0,.28738.34719.28738.34719.57475,0,.28782-.54227.28782-.54227.57563,0,.2883.22022.2883.22022.57659s.395.28824.395.57649c0,.28787-.31379.28787-.31379.57574,0,.28755-.36541.28755-.36541.57509,0,.28726.49318.28726.49318.57453,0,.287-.53887.287-.53887.57406,0,.28685.33594.28685.33594.57369s.19912.28671.19912.57343-.49738.28663-.49738.57326.39034.28661.39034.57321-.28435.28664-.28435.57328-.10431.28673-.10431.57346c0,.28689-.0355.28689-.0355.57377,0,.28711.40726.28711.40726.57421,0,.28739-.1208.28739-.1208.57478,0,.28775-.07353.28775-.07353.57549,0,.28818.25607.28818.25607.57636,0,.28868-.1832.28868-.1832.57737s.007.28878.007.57756c0,.28837-.25667.28837-.25667.57674,0,.288.61181.288.61181.57608,0,.28782-.204.28782-.204.57563s.25785.28768.25785.57536-.28161.28766-.28161.57532-.40056.28774-.40056.57549c0,.28794.60493.28794.60493.57589,0,.28827.05709.28827.05709.57655,0,.28873-.2222.28873-.2222.57746,0,.28927.00289.28927.00289.57853,0,.28878-.2835.28878-.2835.57756,0,.28846.33338.28846.33338.57692,0,.2883-.0934.2883-.0934.57661s-.02215.28833-.02215.57667c0,.28857-.22081.28857-.22081.57714,0,.289-.00841.289-.00841.578,0,.28932.42222.28932.42222.57864,0,.28889-.17626.28889-.17626.57777,0,.28872.27487.28872.27487.57743s-.66083.28886-.66083.57771c0,.28676.71452.28676.71452.57352,0,.287-.56423.287-.56423.5741,0,.28775.41159.28775.41159.57549,0,.28891-.0487.28891-.0487.57781,0,.28981-.04284.28981-.04284.57961,0,.28881-.04279.28881-.04279.57761,0,.28848-.06772.28848-.06772.577,0,.28891.07291.28891.07291.57783,0,.29024.09154.29024.09154.58048,0,.2896-.08323.2896-.08323.5792s-.25821.2896-.25821.57921c0,.29056-.12057.29056-.12057.58113,0,.29008.16631.29008.16631.58017,0,.28987.1732.28987.1732.57974,0,.28938.24939.28938.24939.57876,0,.29089-.32961.29089-.32961.58178,0,.29134-.04036.29134-.04036.58269,0,.29216-.12462.32359-.057.60782C208.65706,180.29212,208.91541,180.355,208.71089,180.56368Z" fill="#f07c8b"/><path d="M253.82582,180.80872c-.20025.20475-.568-.55268-.85443-.55268s-.28637.56034-.57274.56034-.2864-.67269-.57281-.67269-.28649.7232-.573.7232-.28665-.0055-.5733-.0055c-.28686,0-.28686-.69841-.57373-.69841-.28716,0-.28716.09445-.57431.09445-.28751,0-.28751.428-.575.428-.28794,0-.28794.01423-.57588.01423-.28845,0-.28845-.24748-.5769-.24748s-.28855.14655-.57709.14655c-.28813,0-.28813-.3779-.57626-.3779-.28781,0-.28781.518-.57562.518-.28757,0-.28757-.56944-.57515-.56944s-.28745.7512-.57489.7512-.28742-.00876-.57485-.00876-.2875-.40645-.575-.40645c-.28771,0-.28771.36076-.57542.36076-.288,0-.288-.45242-.57608-.45242-.28849,0-.28849.41464-.577.41464-.289,0-.289-.2499-.57806-.2499-.28854,0-.28854.01059-.57708.01059-.28822,0-.28822.0976-.57644.0976s-.28807-.08562-.57614-.08562-.2881.30379-.5762.30379c-.28833,0-.28833-.48125-.57667-.48125-.28877,0-.28877.50007-.57755.50007-.28908,0-.28908-.57836-.57817-.57836-.28865,0-.28865.22184-.57729.22184-.28848,0-.28848-.12472-.577-.12472s-.28862.22533-.57724.22533c-.28652,0-.28652.25692-.573.25692-.28682,0-.28682-.69145-.57363-.69145-.28751,0-.28751-.02723-.575-.02723-.28866,0-.28866.23369-.57733.23369-.28957,0-.28957.42582-.57913.42582-.28857,0-.28857.03552-.57714.03552-.28824,0-.28824-.76657-.57648-.76657-.28868,0-.28868.28374-.57736.28374-.29,0-.29.24716-.58.24716-.28937,0-.28937-.49861-.57873-.49861s-.28937.30475-.57874.30475c-.29032,0-.29032-.26066-.58065-.26066-.28984,0-.28984-.01184-.57969-.01184-.28963,0-.28963.263-.57926.263-.28915,0-.28915.10694-.57829.10694-.29065,0-.29065.173-.58131.173-.2911,0-.2911-.57868-.5822-.57868-.29192,0-.29192.68017-.58384.68017s-.5765.09944-.785-.10492c-.20435-.20033-.13767-.49133-.13767-.7775s.397-.28611.397-.57223.07413-.28606.07413-.57213.04083-.286.04083-.572.16958-.286.16958-.57194.03568-.28593.03568-.57187-.73658-.28589-.73658-.57178.02831-.28586.02831-.57173.26822-.28583.26822-.57166.1731-.2858.1731-.57161-.18912-.28578-.18912-.57156-.14467-.28576-.14467-.57153.28135-.28574.28135-.57149.16259-.28574.16259-.57147-.45039-.28573-.45039-.57146.178-.28572.178-.57144.03592-.28573.03592-.57145.38469-.28573.38469-.57146-.14242-.28573-.14242-.57147-.33853-.28574-.33853-.57149-.11225-.28576-.11225-.57153.074-.28578.074-.57156.1281-.28581.1281-.57162.14533-.28583.14533-.57167-.43589-.28586-.43589-.57173-.06551-.2859-.06551-.57181.60861-.28594.60861-.57189-.57707-.286-.57707-.572.01665-.286.01665-.57208.42939-.28609.42939-.57218.08839-.28616.08839-.57231.175-.28621.175-.57243-.4275-.28628-.4275-.57257.25286-.28635.25286-.57271-.24849-.28643-.24849-.57286.30731-.28652.30731-.573-.29428-.28661-.29428-.57321.29086-.28669.29086-.57338-.32482-.28679-.32482-.57358.445-.28689.445-.57379-.30159-.287-.30159-.574-.04782-.28711-.04782-.57422.09129-.28723.09129-.57445.24174-.28735.24174-.5747-.47959-.28748-.47959-.575-.01-.28761-.01-.57522.30093-.28775.30093-.57549.02748-.28789.02748-.57578-.189-.288-.189-.57608c0-.2882.2977-.2882.2977-.57639s-.6524-.28818-.6524-.57636.285-.288.285-.5761-.13624-.28793-.13624-.57586.38934-.28781.38934-.57562.15186-.2877.15186-.5754-.5453-.2876-.5453-.57519.12428-.2875.12428-.575-.138-.2874-.138-.57481.38251-.28732.38251-.57464.1833-.28724.1833-.57448-.31293-.28716-.31293-.57433.14064-.2871.14064-.5742-.19132-.28705-.19132-.57409-.31961-.287-.31961-.574.10763-.28695.10763-.57389-.00448-.2869-.00448-.57381.19668-.28687.19668-.57374-.0647-.28685-.0647-.5737.40814-.28683.40814-.57366-.24655-.28682-.24655-.57364.25628-.28681.25628-.57363-.16117-.28682-.16117-.57364.20108-.28684.20108-.57367-.51866-.28686-.51866-.57371.157-.28689.157-.57377.15492-.28692.15492-.57384-.18514-.287-.18514-.57393-.34513-.287-.34513-.574.49262-.28708.49262-.57416.21161-.28714.21161-.57429-.07509-.28723-.07509-.57446.0056-.28731.0056-.57463-.20014-.28741-.20014-.57482-.36961-.28752-.36961-.575-.01069-.28763-.01069-.57526.252-.28775.252-.57551.34533-.28789.34533-.57578-.013-.288-.013-.57606c0-.28819-.40521-.28819-.40521-.57638,0-.28835.01093-.28835.01093-.57669,0-.28853-.15176-.28853-.15176-.57705s.4943-.28848.4943-.577c0-.28833-.39105-.28833-.39105-.57666s-.00831-.2882-.00831-.5764.48444-.28808.48444-.57616-.57459-.288-.57459-.57593.03367-.28786.03367-.57573.16721-.28777.16721-.57555.0209-.2877.0209-.5754.17428-.28763.17428-.57526.26839-.28758.26839-.57516-.57117-.28755-.57117-.57509.43168-.28751.43168-.575.02245-.2875.02245-.575-.5201-.28749-.5201-.575.42946-.28751.42946-.575-.35428-.28753-.35428-.57506.569-.28757.569-.57515-.41812-.28762-.41812-.57525.08743-.28769.08743-.57539.1755-.28778.1755-.57555-.53626-.28788-.53626-.57575.50983-.288.50983-.576-.09963-.28812-.09963-.57624.27621-.28826.27621-.57652c0-.28843-.00127-.28843-.00127-.57685,0-.2886-.09159-.2886-.09159-.57721,0-.28878-.284-.28878-.284-.57756,0-.28861-.217-.28861-.217-.57722,0-.28846.60065-.28846.60065-.57693s-.26476-.28832-.26476-.57665-.5035-.28822-.5035-.57643.69653-.28812.69653-.57624-.022-.288-.022-.57609-.14809-.288-.14809-.576-.03856-.288-.03856-.57592.21367-.28794.21367-.57588-.00391-.288-.00391-.57591-.46709-.288-.46709-.576.20853-.288.20853-.57607.339-.28811.339-.57623-.43024-.28821-.43024-.57643-.21822-.28834-.21822-.57668.02193-.28849.02193-.577c0-.28867.52761-.28867.52761-.57734,0-.28887.10481-.28887.10481-.57774s-.65545-.28879-.65545-.57758c0-.28863.1591-.28863.1591-.57725s-.10228-.28849-.10228-.577.55519-.28839.55519-.57677-.25766-.28831-.25766-.57662c0-.28638-.486-.28638-.486-.57277,0-.28665.30176-.28665.30176-.5733,0-.28694.22259-.28694.22259-.57388,0-.28727.19579-.28727.19579-.57454,0-.28764-.72765-.28764-.72765-.57528,0-.288.73992-.288.73992-.57608,0-.28848-.61532-.28848-.61532-.577,0-.289.1664-.289.1664-.57793s.13731-.28891.13731-.57782c0-.28854.04294-.28854.04294-.57708,0-.28821-.14624-.28821-.14624-.57643,0-.28793.00183-.28793.00183-.57585,0-.2877.33807-.2877.33807-.5754,0-.28751-.0888-.28751-.0888-.575s-.44147-.28738-.44147-.57475.58572-.2873.58572-.5746-.27163-.28727-.27163-.57454-.402-.2873-.402-.5746.07567-.2874.07567-.5748.49015-.28755.49015-.57509c0-.28777.06078-.28777.06078-.57554,0-.28806-.03736-.28806-.03736-.57611,0-.28842-.42846-.28842-.42846-.57683,0-.28885.34485-.28885.34485-.57769,0-.28936-.46624-.28936-.46624-.57871s.16932-.28945.16932-.57891c0-.289.49662-.289.49662-.57807,0-.28871-.69868-.28871-.69868-.57742,0-.28848.53934-.28848.53934-.577s-.05007-.28835-.05007-.5767-.31445-.28832-.31445-.57665.51614-.28841.51614-.57682c0-.28861-.13365-.28861-.13365-.57723,0-.28894-.4798-.28894-.4798-.57788,0-.2894.62061-.2894.62061-.57881,0-.28993-.68474-.28993-.68474-.57987,0-.28945.31626-.28945.31626-.5789,0-.28912-.34805-.28912-.34805-.57825,0-.289.28961-.289.28961-.57794s-.19362-.289-.19362-.578c0-.28924.16775-.28924.16775-.57848,0-.28969.39983-.28969.39983-.57937,0-.29.00983-.29.00983-.58,0-.28955-.049-.28955-.049-.5791,0-.28939-.55254-.28939-.55254-.57877,0-.28953.18452-.28953.18452-.57905,0-.28743-.14064-.28743-.14064-.57485,0-.28771.478-.28771.478-.57543,0-.28841-.52841-.28841-.52841-.57683,0-.28957.14041-.28957.14041-.57915,0-.29047.45042-.29047.45042-.581,0-.28947.08327-.28947.08327-.579,0-.28915-.63515-.28915-.63515-.57829,0-.28959.207-.28959.207-.57917,0-.29091-.27339-.29091-.27339-.58183,0-.29027.24963-.29027.24963-.58054s.47188-.29028.47188-.58055c0-.29124-.11667-.29124-.11667-.58248,0-.29076-.29411-.29076-.29411-.58152,0-.29054-.24213-.29054-.24213-.58108,0-.29-.06574-.29-.06574-.5801,0-.29157.54161-.29157.54161-.58313,0-.292-.36477-.292-.36477-.584,0-.29283-.18032-.29283-.18032-.58567s.15346-.342.35822-.55131c.20025-.20475.25125-.20074.53765-.20074s.28637.09211.57274.09211.2864-.09668.57281-.09668.28649.11912.573.11912c.28665,0,.28665.38061.5733.38061.28687,0,.28687-.69386.57373-.69386.28716,0,.28716.37518.57431.37518.28751,0,.28751-.23878.575-.23878.28794,0,.28794.22856.57589.22856.28844,0,.28844-.17291.57689-.17291s.28855.04039.57709.04039c.28813,0,.28813-.15445.57626-.15445.28781,0,.28781.303.57562.303.28757,0,.28757-.39873.57515-.39873s.28745.69995.57489.69995.28743-.12895.57485-.12895.28751-.56178.575-.56178c.28771,0,.28771.00386.57542.00386.288,0,.288.39741.57608.39741.2885,0,.2885-.13531.577-.13531.289,0,.289.08382.57806.08382.28854,0,.28854.08264.57708.08264.28822,0,.28822.29183.57644.29183s.28807-.56479.57614-.56479.2881.2964.5762.2964c.28834,0,.28834-.054.57667-.054.28877,0,.28877-.38041.57755-.38041.28909,0,.28909.41325.57817.41325.28865,0,.28865.1088.57729.1088.28848,0,.28848.17655.577.17655s.28862-.32447.57724-.32447c.28652,0,.28652-.041.57305-.041.28681,0,.28681-.05636.57362-.05636.28752,0,.28752.17448.575.17448.28867,0,.28867.08924.57733.08924.28957,0,.28957-.52641.57914-.52641.28857,0,.28857-.01518.57714-.01518.28824,0,.28824.73824.57648.73824.28867,0,.28867-.48614.57735-.48614.29,0,.29.17345.58.17345.28936,0,.28936-.1947.57872-.1947s.28937.16707.57874.16707c.29032,0,.29032.02672.58065.02672.28985,0,.28985.24685.57969.24685.28963,0,.28963-.04557.57927-.04557.28914,0,.28914-.39186.57828-.39186.29066,0,.29066.11948.58131.11948.2911,0,.2911-.29621.58221-.29621.29192,0,.29192-.00418.58384-.00418s.21879.25554.42726.45989c.20435.20033.321.12644.321.41261s.20088.28611.20088.57223-.30751.28606-.30751.57213-.387.286-.387.572.23506.286.23506.57194.06719.28593.06719.57186.26819.2859.26819.57179.07481.28586.07481.57173-.29559.28583-.29559.57166.26051.2858.26051.57161-.39235.28578-.39235.57156.01983.28576.01983.57152.19721.28575.19721.5715-.45809.28574-.45809.57147.25181.28573.25181.57146.29883.28572.29883.57144-.506.28573-.506.57145.32709.28573.32709.57146.37044.28573.37044.57147-.57775.28574-.57775.57149.22932.28576.22932.57153.04381.28578.04381.57156-.3076.28581-.3076.57162.01166.28583.01166.57167.2332.28586.2332.57173.1334.2859.1334.57181-.52914.28594-.52914.57189.39772.286.39772.572-.10807.286-.10807.57208.14988.28609.14988.57218-.41195.28616-.41195.57231.50828.28621.50828.57243-.01207.28628-.01207.57257-.31125.28635-.31125.57271-.0902.28643-.0902.57286-.0865.28652-.0865.573.33506.28661.33506.57321-.36621.28669-.36621.57338.18225.28679.18225.57358.34633.28689.34633.57379-.09044.287-.09044.574-.18266.28711-.18266.57422-.02849.28723-.02849.57445.18008.28735.18008.5747-.02069.28748-.02069.575-.19618.28761-.19618.57522.15022.28775.15022.57549.39122.28789.39122.57578-.28426.288-.28426.57608c0,.2882-.1076.2882-.1076.57639s.22117.28818.22117.57636-.12413.288-.12413.5761.21179.28793.21179.57586-.56555.28781-.56555.57562.19161.2877.19161.5754.44856.2876.44856.57519-.01876.2875-.01876.575-.02315.2874-.02315.57481-.31288.28732-.31288.57464.19339.28724.19339.57448-.53513.28716-.53513.57433.71264.2871.71264.5742-.1867.287-.1867.57409-.498.287-.498.574.02232.28695.02232.57389.15983.2869.15983.57381.45472.28687.45472.57374.07012.28685.07012.5737-.28684.28683-.28684.57366-.4389.28682-.4389.57364.121.28681.121.57363.3577.28682.3577.57364.18767.28684.18767.57367-.50738.28686-.50738.57371-.15724.28689-.15724.57377.632.28692.632.57384-.24868.287-.24868.57393-.40386.287-.40386.574.602.28708.602.57416-.53327.28714-.53327.57429.54379.28723.54379.57446.13222.28731.13222.57463-.1955.28741-.1955.57482-.3766.28752-.3766.575.08853.28763.08853.57526.04763.28775.04763.57551.31455.28789.31455.57578-.41883.288-.41883.57606c0,.28819-.03855.28819-.03855.57638,0,.28835-.13208.28835-.13208.57669,0,.28853.706.28853.706.577s-.14367.28848-.14367.577c0,.28833-.569.28833-.569.57666s.10284.2882.10284.5764.2786.28808.2786.57616-.4232.288-.4232.57593.40922.28786.40922.57573.27071.28777.27071.57555-.48873.2877-.48873.5754.43567.28763.43567.57526-.42332.28758-.42332.57516.446.28754.446.57509-.14168.28751-.14168.575-.10159.2875-.10159.575-.36963.28749-.36963.575.021.28751.021.575.38489.28754.38489.57507-.39956.28757-.39956.57515.29487.28762.29487.57525.392.28769.392.57539-.046.28778-.046.57555-.40689.28788-.40689.57575.24364.288.24364.576-.14655.28812-.14655.57624.05846.28826.05846.57652c0,.28843-.43145.28843-.43145.57685,0,.2886.21555.2886.21555.57721,0,.28878.227.28878.227.57756,0,.28861.1856.28861.1856.57722,0,.28846-.64782.28846-.64782.57693,0,.28832.01657.28832.01657.57665s.69154.28822.69154.57643.0357.28812.0357.57624-.23555.288-.23555.57609-.27914.288-.27914.576-.05616.288-.05616.57592.48246.28794.48246.57588-.65457.288-.65457.57591.16506.288.16506.576.58086.288.58086.57607-.02961.28811-.02961.57623.06117.28821.06117.57643-.56973.28834-.56973.57668-.0186.28849-.0186.577c0,.28867-.13086.28867-.13086.57734,0,.28887.66081.28887.66081.57774s-.36736.28879-.36736.57758c0,.28863.03416.28863.03416.57725s.2576.28849.2576.577-.38364.28839-.38364.57677-.11211.28831-.11211.57662c0,.28638-.04053.28638-.04053.57277,0,.28665.45867.28665.45867.5733,0,.28694-.06594.28694-.06594.57388,0,.28727.18524.28727.18524.57454,0,.28764-.23433.28764-.23433.57528,0,.288.21868.288.21868.57608,0,.28848.1143.28848.1143.577,0,.289-.75367.289-.75367.57793s.21895.28891.21895.57782c0,.28854-.171.28854-.171.57708,0,.28821.40237.28821.40237.57642,0,.28793-.11081.28793-.11081.57586,0,.2877-.37283.2877-.37283.5754,0,.28751.69225.28751.69225.575s-.20514.28737-.20514.57475.16448.2873.16448.5746-.24384.28727-.24384.57454-.17685.2873-.17685.5746.1247.2874.1247.5748c0,.28755-.19132.28755-.19132.57509,0,.28777.34772.28777.34772.57554,0,.28806-.18415.28806-.18415.57611,0,.28842-.09966.28842-.09966.57683,0,.28885.281.28885.281.57769,0,.28936.16614.28936.16614.57871s-.273.28945-.273.5789c0,.289-.16939.289-.16939.57808,0,.28871-.11293.28871-.11293.57742,0,.28848.06633.28848.06633.577s.42408.28835.42408.5767-.49462.28832-.49462.57665-.08711.28841-.08711.57682c0,.28861.37247.28861.37247.57723,0,.28894.26259.28894.26259.57788,0,.2894-.04638.2894-.04638.57881,0,.28993.036.28993.036.57987,0,.28945.07785.28945.07785.5789,0,.28912-.57942.28912-.57942.57825,0,.289.36159.289.36159.57794s-.2599.289-.2599.578c0,.28924-.23071.28924-.23071.57848,0,.28969-.02995.28969-.02995.57937,0,.29.46829.29.46829.58,0,.28955.02291.28955.02291.5791,0,.28939-.23709.28939-.23709.57877s-.01653.28953-.01653.579c0,.28743.12521.28743.12521.57485,0,.28771-.30917.28771-.30917.57543,0,.28841.16173.28841.16173.57683,0,.28957.00245.28957.00245.57915,0,.29047.32711.29047.32711.581,0,.28947-.24144.28947-.24144.57895,0,.28915-.06956.28915-.06956.57829,0,.28959.136.28959.136.57917,0,.29091.40616.29091.40616.58183,0,.29027-.16922.29027-.16922.58054s.09509.29028.09509.58055c0,.29124-.29335.29124-.29335.58248,0,.29076-.299.29076-.299.58152,0,.29054-.014.29054-.014.58108,0,.29005.15128.29005.15128.5801,0,.29157.14491.29157.14491.58313,0,.292-.00406.292-.00406.584,0,.29283-.0603.29716.04683.5697C253.75991,180.37711,254.03057,180.59936,253.82582,180.80872Z" fill="#dc1e2a"/><path d="M253.38733.207c-.2124-.19576-.16214-.2486-.44162-.17564-.27917.07288-.21618.31416-.49535.387-.27895.07282-.2516.17757-.53054.2504s-.31946-.08288-.59828-.01009-.26738.11652-.54617.18931-.29815-.001-.577.07177c-.27908.07286-.24469.20458-.52376.27744-.2794.07293-.38869-.3457-.66808-.27276-.27984.073-.22312.29029-.503.36335-.28035.07319-.288.04371-.5684.1169-.27988.07307-.21852.30812-.4984.38119-.27957.073-.35206-.20468-.63162-.13169s-.21618.31519-.49561.38814-.3423-.16778-.62175-.09483c-.27968.073-.28586.04933-.56554.12235-.28011.07312-.207.3531-.48713.42623-.2804.0732-.29538.01586-.57578.08906-.28.07309-.34962-.19366-.62961-.12057-.27982.073-.17241.48449-.45223.55754-.27809.0726-.2488.18481-.5269.25741s-.46027-.62554-.73829-.553c-.2783.07265-.10109.75147-.37939.82412-.279.07283-.35428-.21559-.63326-.14276-.2801.07312-.37183-.27828-.65194-.20516-.281.07335-.1535.56163-.43447.635-.28.07309-.30969-.04063-.5897.03247-.27969.073-.22423.28543-.50392.35845-.28011.07313-.36833-.26479-.64844-.19166-.28139.07346-.347-.178-.62843-.10451-.28077.0733-.28814.04508-.56891.11838s-.16658.51079-.44736.58409c-.28171.07354-.21574.32625-.49745.39979-.28124.07342-.46273-.62176-.744-.54834-.281.07337-.17109.49451-.45213.56788-.28056.07324-.30494-.02013-.5855.05311-.282.07363-.19486.40754-.47689.48117-.28246.07374-.38079-.3029-.66325-.22916-.28326.07395-.26951.12661-.55277.20055s-.17679-.04313-.23316.24414c-.05729.29192-.23273.29723-.00046.48311.23147.18523.14464.29374.37611.479.2312.185.62692-.30945.85812-.12442.23156.1853-.17216.68979.05939.87509.23262.18616.21881.20342.45143.38957.2321.18575.37549.00657.6076.19232s.33979.05118.5719.23693c.23288.18637.0293.44076.26218.62712.23136.18515.51541-.1698.74677.01534.23251.18607.12421.3214.35672.50747.23212.18575.12315.32192.35527.50768.23333.18672.5691-.23285.80243-.04612.23369.187.25142.16485.48511.35186.23435.18754-.09236.5958.142.78334s.362.022.526.27337c-.13307.13952-.40508.06484-.53825.204s-.077.46-.21038.59888-.44238.109-.576.24771-.05111.48628-.185.62471c-.134.13858-.27711.26838-.41126.40658s-.55174.0008-.68612.13876.14326.67823.00864.81594-.50834.04187-.6432.17935.02927.56943-.10583.70667-.77133-.21939-.90666-.08239c-.13548.13714.16087.70126.0253.838s-.19053.35468-.32634.4912c-.136.13666-.76245-.21575-.89851-.07947s-.13863.40578-.27492.54181.05242.59881-.0841.7346c-.13667.13593-.22493.32128-.36169.45682s-.71313-.1727-.85013-.03739-.00979.53881-.147.67387-.34795.19589-.48541.33071-.31945.22452-.45715.35909-.24105.3047-.379.439-.022.53066-.16018.66474-.70761-.17651-.846-.04267-.11433.436-.253.56963c-.13878.13373-.17142.37777-.31029.51111s-.25069.29569-.38979.42879-.6257-.09742-.765.03542c-.13948.133.19387.76262.0543.89521s-.4189.11889-.55869.25124-.44151.09387-.58154.226.05151.61709-.08874.74894c-.1404.132-.42494.111-.56542.24259s-.44367.08982-.58438.22117c-.14086.13149-.08086.47863-.2218.60973-.14109.13124-.67324-.15894-.81441-.02809-.14132.131-.30877.23266-.45017.36327s.16922.75177.0276.88212-.687-.17826-.82881-.04816-.15175.40422-.29383.53407-.20138.35075-.34368.48034-.125.43558-.26751.56492-.32128.21974-.464.34883-.27182.27435-.41479.40318c-.14313.129-.22587.32562-.36907.4542s-.43536.092-.57879.22028-.27585.26968-.4195.39775-.40986.11892-.55373.24673c-.144.12795-.1497.41181-.2938.53937s-.4769.042-.62121.1693c-.14447.12744-.32625.21186-.47079.33891-.14469.12718.06707.6606-.07769.78739s-.44807.07326-.59305.19979-.18709.372-.33228.49833c-.14535.12641-.29485.24855-.44026.37457-.14557.12615-.35267.18155-.4983.30731-.14579.12589-.25813.29091-.404.41641-.146.12563-.33882.19707-.48489.32231s-.61466-.12619-.761-.0012.05852.66186-.088.78658c-.14666.12486-.51766-.01442-.66438.11-.14688.12459-.0255.56592-.17243.69012-.1471.12434-.21568.34239-.36283.46634-.14731.12407-.37811.14953-.52547.27321-.14752.12382-.472.03654-.61958.16-.14774.12356-.49538.007-.64318.13012s.13165.76037-.01635.88327c-.14817.123-.25028.30244-.3985.42508-.14838.12277-.4937.00759-.64213.13-.14859.1225-.27468.27247-.42332.39459-.14881.12224-.34844.18256-.4973.30441s-.07665.51531-.22572.6369c-.14923.12172-.54812-.06283-.69739.0585-.14944.12145-.31467.22323-.46415.34429-.14965.12119-.03656.56773-.18625.68853-.14986.12093-.63693-.17661-.78684-.05608s-.38386.13623-.534.25649c-.15028.1204-.13284.44993-.28316.56993-.15048.12013-.31547.22182-.466.34155-.15069.11987-.05013.55646-.20086.67593-.1509.11961-.66766-.22318-.8186-.104-.1511.11934-.41.10089-.56114.21983-.15131.11907-.28306.2618-.43441.38047-.15151.1188-.11461.47756-.26617.596-.15172.11853-.377.14218-.5288.26032-.15193.11827-.42123.08453-.57319.2024-.15213.118.11773.78075-.03444.89836-.15233.11773-.36425.15882-.51662.27616-.15253.11746-.28089.26689-.43346.384-.15274.1172-.41564.09088-.56841.20768-.15294.11693-.54375-.07833-.69672.0382-.15314.11666-.03849.585-.19166.7013-.15334.1164-.31536.22151-.46873.33751-.15354.11612-.49316-.01453-.64673.1012-.15374.11585-.43.06775-.5838.18321-.15394.11558.12131.80353-.03265.91872-.15414.11531-.664-.24583-.81815-.13091-.15434.115-.08876.5252-.24312.63985-.15453.11477-.181.40273-.33553.51711-.15473.1145-.45313.03487-.60789.149-.15492.11423-.41666.08309-.5716.19692-.15513.114-.4425.04674-.59764.1603-.15532.11369.11646.81182-.03888.92511-.15551.11342-.61279-.18748-.76832-.07447-.15571.11315-.38232.1278-.538.24055-.1559.11288-.07772.54932-.23364.6618-.15609.1126-.30178.24-.45789.35215-.15629.11233-.33033.20018-.48663.31211-.15648.11206-.28845.25869-.44495.37035-.15667.11179-.52638-.07576-.68306.03562-.15687.11152-.01638.6421-.17325.75321-.15706.11124-.28755.2609-.44462.37174-.15724.111-.70765-.33632-.8649-.22576-.15743.11069-.05692.58848-.21436.69877-.15762.11042-.53205-.08957-.68968.02045-.15781.11014-.31383.22194-.47164.33168-.158.10987-.10246.527-.26046.6365-.15819.1096-.41131.08188-.5695.19107-.15837.10932-.44857.02667-.60694.13559-.15856.109.00637.68921-.15218.79786-.15874.10877-.705-.34934-.86373-.241-.15893.1085-.01117.66656-.17009.77465-.15912.10822-.42629.05729-.58539.1651-.1593.10794-.43756.03941-.59685.147-.15948.10766-.07677.57446-.23624.68172-.15967.1074-.52345-.0894-.6831.01758-.15984.10712-.21832.36534-.37815.472-.16.10684-.54856-.13-.70857-.02359-.16021.10656-.1959.39958-.35609.50574-.16039.10628-.26853.29094-.42891.39682-.16056.106-.06175.6059-.2223.7115-.16075.10573-.51622-.08467-.677.02065-.16092.10546-.22708.356-.388.461-.16111.10517-.39436.09987-.55544.20464-.16128.1049-.27681.28044-.43807.38493-.16146.10462-.34492.17546-.50636.27967-.16163.10435-.42746.04684-.58907.15078-.16182.10406-.44368.02031-.60546.124-.162.10379-.34667.17087-.50863.27425-.16216.10351-.28229.27182-.44443.37492-.16233.10323-.3658.14049-.52811.24331-.16251.10295.01216.73886-.15032.8414-.16268.10267-.34023.18242-.50288.28468-.16286.10239-.50182-.07574-.66464.02624-.163.10212-.1833.43258-.34629.53428-.1632.10183-.41821.05641-.58137.15783-.16337.10155-.53725-.13695-.70058-.03581-.16354.10127-.14525.49588-.30875.59674-.16371.101-.31771.21749-.48137.31808-.16388.10071-.24254.34039-.40637.44069-.16405.10044-.509-.09548-.673.00455-.16421.10015-.42767.03611-.59184.13586-.16473.10008-.07512.6189-.2398.71857-.16489.0998-.57874-.21321-.74359-.11382-.16505.09951.01238.76782-.15262.86692-.16522.09923-.4.08288-.56519.1817-.16538.099-.307.238-.47237.33652-.16554.09866-.45988-.01917-.62536.07908-.16571.09838-.44526.00387-.6109.10183-.16587.0981-.247.33888-.41281.43656-.166.09781-.39889.08114-.56486.17853-.16619.09753-.20017.42016-.3663.51728-.16635.09724-.29814.25364-.46442.35047-.16651.097-.33493.19068-.50137.28722-.16667.09667-.29407.26134-.46067.35759-.16682.09639-.23757.36-.40432.456-.167.0961-.44657-.00325-.61347.09243-.16714.09582-.32763.20348-.49469.29888-.1673.09553-.25681.328-.424.42315-.16745.09524-.59259-.26355-.76-.16872-.1676.095-.2645.31421-.432.40875-.16776.09468-.42257.034-.59025.12822-.16791.09439-.38017.10844-.548.20241-.16806.0941-.18285.46157-.35083.55526-.16822.09382-.23829.36393-.40642.45733-.16837.09353-.2904.27114-.45868.36425-.16852.09324-.48079-.07369-.64922.01914-.16867.093-.28686.27751-.45544.37005-.16882.09267-.55365-.20974-.72238-.11749-.169.09239-.173.48613-.34183.5781-.16912.0921-.199.44051-.368.53219-.16927.09182-.42112.03142-.59028.12282-.16942.09152-.40209.06551-.57141.15661-.16956.09125-.23695.37268-.4064.4635-.16971.091-.30206.25222-.47166.34275-.16985.09067-.49839-.11653-.66813-.02628-.17.09038-.41858.03176-.58847.12172-.17014.09009-.21756.41168-.38759.50135-.17029.08981-.44288-.01542-.61305.074-.17043.08952-.22922.3914-.39954.48049-.17057.08923-.44484-.02077-.6153.068-.17072.08895-.14632.55289-.31692.64142-.17086.08865-.55922-.24307-.73-.15483-.171.08837-.08474.67537-.25561.76331-.17115.08809-.55218-.23248-.72319-.14483-.17128.0878-.2644.32786-.43555.41523-.17142.08751-.35938.14227-.53067.22935-.17156.08722-.46535-.06734-.63677.01945-.1717.08693-.22285.41158-.39441.49809-.17184.08664-.25416.35116-.42586.43738-.172.08636-.52679-.19258-.69862-.10665-.17211.08607-.35687.14556-.52884.2312-.17225.08578-.351.15712-.52312.24248-.17238.08549-.37016.1182-.5424.20326-.17251.0852-.03386.80152-.20623.88629-.17265.08492-.50506-.1553-.67756-.07081-.17278.08462-.28158.30015-.45421.38435-.17291.08434-.49879-.146-.67155-.0621-.17305.08405-.27555.31289-.44844.3965-.17318.08376-.29222.27948-.46524.36281-.17331.08347-.27963.30664-.45278.38968-.17344.08318-.47254-.09615-.64582-.0134-.17357.08289-.44587-.04234-.61928.04012-.1737.08261-.27967.30683-.45321.389-.17383.08232-.24964.37171-.4233.45359-.174.082-.56445-.29706-.73824-.21546-.17408.08173-.13536.61677-.30927.69807-.17422.08145-.43531-.0237-.60934.05732-.17435.08116-.31766.22849-.49182.30922-.17447.08087-.49009-.1446-.66437-.06417-.1746.08058-.3127.23875-.48711.31889-.17472.08029-.17681.53639-.35134.61624-.17484.08-.31823.22919-.49288.30876-.175.07971-.41988.00565-.59465.08492-.17509.07942-.39423.06109-.56912.14007-.17522.07913-.43813-.03744-.61314.04125-.17534.07884-.13608.63549-.31121.71389-.17546.07855-.58279-.36252-.758-.2844-.17557.07826-.125.66447-.30034.74229-.1757.078-.44893-.06429-.62442.01324-.17582.07768-.38.09038-.55562.16762-.17594.07739-.28538.30587-.4611.38283-.17606.0771-.24119.40853-.417.48519-.17618.07681-.34432.17318-.52027.24955-.17629.07652-.357.14388-.5331.22-.17641.07623-.5622-.33317-.73837-.25738-.17707.07618-.31136.25115-.4882.32688-.17718.07588-.25156.39221-.4285.46764-.17728.07558-.41308.01372-.59012.08886-.17739.07528-.44911-.07292-.62626.00192-.17749.075-.16752.59452-.34476.66906-.1776.07469-.57637-.37812-.75371-.30388-.17771.0744-.35589.146-.53334.22-.17781.0741-.18031.56915-.35786.6428-.17791.0738-.45843-.10062-.63608-.02726-.178.0735-.36249.13038-.54024.20344-.17811.0732-.33292.20243-.51076.27518-.17821.07291-.343.17809-.52094.25055-.17831.07261-.48222-.16518-.66025-.093-.17841.07231-.26958.35888-.44771.43074-.17851.072-.19054.55762-.36877.62919-.1786.07172-.4108.01028-.58912.08155-.1787.07142-.31479.25029-.4932.32126-.1788.07112-.55174-.3473-.73024-.27663-.1789.07083-.33049.20943-.50909.2798-.179.07053-.29635.297-.475.36712-.17909.07023-.22907.47081-.40785.54058-.17917.06994-.42024-.01832-.59911.05116-.17927.06963-.3055.27684-.48446.346-.17936.06934-.59611-.47735-.77516-.40847-.17945.069-.18592.588-.36506.65654-.17954.06874-.408.0093-.58723.07758-.17964.06844-.41771-.01765-.597.05033-.17973.06815-.26688.38047-.44627.44815-.17982.06785-.40292.02041-.5824.0878-.17991.06755-.39532.03951-.57488.10659-.18.06725-.30093.29229-.48058.35907-.18008.06695-.44688-.10079-.62661-.03431-.18017.06665-.28191.3449-.46172.41109-.18026.06635-.451-.11466-.63086-.04877-.18033.06605-.20116.56816-.38113.63375-.18042.06575-.58581-.48836-.76586-.42307-.1805.06545-.1543.70127-.33443.76626-.18058.06515-.40815-.00029-.58836.0644-.18067.06485-.50889-.28381-.68918-.21942-.18075.06455-.19552.59374-.37589.65782-.18083.06426-.31021.27392-.49065.33771-.18092.064-.48366-.21789-.66418-.1544-.181.06365-.43332-.07774-.61391-.01455-.18181.06361-.315.26459-.49643.32773-.18187.06331-.43166-.07116-.61311-.00833-.18192.063-.23565.49549-.41715.558-.182.06267-.26407.41608-.44561.47828-.182.06236-.58111-.51141-.76269-.44953-.18205.062-.32415.23942-.50577.301-.18209.06174-.19446.62485-.37612.68611-.18214.06142-.53552-.38692-.71721-.326-.18219.06111-.39391.03164-.57564.09227-.18223.0608-.17417.69252-.35594.75283-.18227.06048-.33747.20355-.51927.26355-.18231.06017-.41252-.0246-.59435.03508-.18235.05986-.43953-.10931-.6214-.04994-.18238.05954-.28127.37519-.46318.43425-.18242.05922-.51248-.33847-.69441-.27973-.18246.05891-.19444.64656-.3764.705-.18249.0586-.38474.05607-.56673.11418-.18253.05828-.49948-.30639-.6815-.24859-.18256.058-.19274.65987-.37478.71736-.1826.05765-.5971-.62226-.77917-.5651-.18263.05734-.24113.50912-.42323.566-.18265.057-.28832.36118-.47044.41771-.18269.05671-.50687-.34454-.689-.28832-.18356.05665-.29893.33332-.48194.38947-.1835.05632-.476-.24559-.659-.18977-.18345.056-.374.08551-.55689.141-.1834.05563-.37605.07737-.55888.1325-.18335.05528-.24172.524-.42449.57883-.18329.05494-.35685.14152-.53956.196-.18323.0546-.44759-.16548-.63023-.11138-.18317.05426-.32541.24506-.508.29882-.18311.05392-.33263.22094-.51514.27436-.18306.05358-.47149-.25606-.65393-.203-.183.05324-.31186.29046-.49423.3432-.18377.05314-.25877.48258-.4419.53521-.18353.05275-.33494.218-.51782.27027-.18327.05235-.458-.21667-.64063-.16483-.183.052-.40454-.03372-.58691.01773-.18277.05157-.31588.2782-.498.32925-.18331.0514-.40877-.04953-.5914.00135s-.41345-.07434-.59539-.024-.19758.7021-.37884.752-.4028-.047-.58336.00239c-.18636.05094-.43643-.13235-.62239-.08183-.18644.05064-.46406-.23773-.6501-.18752-.18651.05034-.17877.82169-.36488.8716-.18659.05-.44763-.17807-.63381-.12846-.18667.04974-.43486-.13345-.62111-.08414-.18675.04943-.33751.23362-.52383.28263-.18682.04913-.37806.08015-.56446.12885-.18689.04883-.448-.18952-.63445-.14112-.187.04853-.32872.26918-.51525.31728-.187.04823-.32466.28734-.51126.33513-.18712.04793-.44582-.18639-.63249-.1389-.1872.04762-.33209.25984-.51883.307-.18726.04732-.35073.18773-.53754.23462-.18734.047-.34154.22587-.52841.27245-.18741.04672-.39344.018-.58038.06432-.18748.04642-.42684-.11893-.61385-.073-.18755.04611-.25819.56881-.44526.61449-.18762.04581-.37827.08022-.5654.12559-.18769.04551-.425-.11427-.61225-.0692-.18776.04521-.36657.12736-.55383.17212-.18783.04491-.44837-.21673-.63569-.17227-.1879.0446-.42932-.14032-.6167-.09616-.188.04429-.26517.55784-.45262.60169-.188.044-.31909.33251-.50659.37606-.1881.04369-.41389-.075-.60145-.03179-.18817.04339-.38613.04379-.57375.08673-.18823.04309-.33775.25609-.52543.29873-.18829.04278-.43423-.16931-.622-.127-.18836.04247-.39692-.0065-.58471.03553-.18843.04218-.42419-.13068-.61205-.08895-.18848.04186-.39555-.00412-.58345.03731-.18855.04156-.22485.77484-.41281.816-.18861.04126-.48135-.39612-.66936-.35531-.18868.041-.31929.34876-.50736.38927-.18873.04065-.41114-.0769-.59926-.0367-.1888.04035-.43548-.19427-.62366-.15437-.18885.04-.33148.29571-.51971.3353-.18892.03974-.35273.19731-.541.23659-.189.03943-.43541-.20028-.62374-.1613-.189.03912-.283.53757-.47136.57624-.18909.03882-.39295.005-.58138.04334-.18915.03851-.35064.21326-.53912.25132-.18921.0382-.38242.0568-.57095.09455-.18926.0379-.42977-.1821-.61835-.14466-.18932.03759-.43481-.21218-.62343-.175-.18938.03728-.32137.364-.51.40081-.18943.037-.43654-.22619-.62525-.18967-.18949.03667-.36744.1287-.5562.16491-.18954.03636-.31818.38865-.507.42455-.18959.03606-.45867-.35121-.64752-.31562-.18965.03574-.29435.52082-.48323.55611-.1897.03543-.35157.21979-.5405.25476-.18975.03513-.41434-.11975-.60331-.08509-.1898.03482-.34853.23874-.53754.27309-.18986.03451-.41943-.152-.60848-.11792-.18991.0342-.39922-.04288-.58831-.00915-.19.03388-.42888-.2129-.618-.17948-.19.03357-.24354.84073-.43271.87383-.19006.03326-.41033-.10672-.59954-.07393-.19011.03295-.44684-.32292-.63608-.29045-.19016.03264-.33727.314-.52655.34617-.19021.03232-.45209-.36354-.6414-.3317-.19025.032-.27206.70861-.4614.74015-.19031.03169-.48531-.5718-.67468-.54058-.19035.03138-.27626.69619-.46567.7271-.19039.03106-.44608-.34246-.63552-.31188-.19044.03075-.41572-.16111-.60519-.13085-.19048.03043-.32959.37893-.51909.40888-.19053.03011-.3483.2661-.53782.29573-.19057.0298-.40724-.11059-.59679-.08127-.19061.02947-.3771.08252-.56668.11151-.19066.02916-.33122.38633-.52082.415-.19071.02884-.42865-.2579-.61827-.22955-.19075.02852-.44318-.36369-.63283-.33566-.19079.0282-.32637.42594-.516.45365-.19083.02787-.35531.23416-.545.26154-.19087.02755-.40816-.1322-.59787-.10515-.19091.02723-.34949.27946-.53922.30619-.191.02691-.43278-.31361-.62252-.2872-.191.02658-.40422-.11521-.594-.08913-.1922.02641-.382.06134-.573.08724-.19222.02608-.34472.33967-.53565.36524-.19225.02575-.42394-.25249-.61487-.22725-.19227.02541-.32984.46051-.52076.4854-.19229.02508-.42184-.24388-.61275-.21932-.19231.02473-.34036.38968-.53127.4139-.19233.0244-.39789-.061-.58879-.03717-.19234.02405-.394-.03288-.58484-.00934-.19237.02371-.345.36693-.53591.39012-.19238.02337-.4513-.5118-.64216-.489-.1924.023-.35289.30528-.54373.32778-.19241.02269-.37376.133-.56457.1552-.19243.02234-.36422.21869-.555.24049-.19244.022-.42351-.30346-.61428-.282-.19245.02164-.41246-.2157-.6032-.1946-.19247.0213-.341.4316-.53172.45236-.19248.02094-.36471.2227-.55539.2431-.19249.02058-.44036-.49134-.631-.4713-.1925.02023-.31322.72017-.50383.73985-.1925.01987-.40486-.15967-.59543-.14035-.19251.01952-.39476-.06635-.58528-.04739-.19259.01916-.39278-.04956-.58332-.031-.19259.0188-.3772.10878-.56769.127-.19259.01844-.39716-.10215-.58759-.08429-.19259.01807-.36986.18811-.56023.2056-.19259.0177-.37123.17829-.56153.1954-.1926.01733-.41147-.27384-.6017-.2571-.1926.01694-.37056.1865-.56072.20286-.19259.01656-.39632-.11418-.5864-.09821-.19259.01619-.38713-.01066-.57712.00492-.19259.0158-.35418.39756-.54408.41276-.19258.01541-.41164-.32156-.60144-.30675-.19258.015-.38825-.03407-.57795-.01966-.19257.01463-.35665.3883-.54623.40231-.19257.01423-.39977-.193-.58924-.17942-.19256.01383-.39359-.1196-.58293-.1064-.19256.01342-.34938.52357-.53858.53635-.19256.013-.40508-.29724-.59412-.28487-.19256.0126-.39977-.23746-.58866-.22551-.19255.01217-.37866.087-.56737.09855-.19256.01175-.37608.13325-.56461.14433-.19256.01132-.36548.32693-.55381.33757-.19257.01088-.38135.05715-.56946.06734-.19258.01043-.3941-.18835-.582-.17861-.19259.01-.37914.09118-.56674.10045-.19265.00952-.40123-.37362-.58857-.36482-.193.00907-.384-.02018-.57134-.01185-.19334.0086-.37005.31852-.55729.32637-.19367.00812-.37341.28258-.56051.28993-.194.00762-.38284.07347-.56971.08031-.19543.00715-.39482-.19783-.58239-.1915-.19532.0066-.37616.34769-.56288.35345-.19523.006-.39386-.23855-.5796-.23338-.19518.00544-.38251.13176-.5671.13632-.19608.00484-.38435.13282-.56835.13676-.19747.00422-.39779-.468-.5812-.46476-.19879.00356-.38962-.0453-.5717-.04274-.20005.00282-.38754.185-.56716.18676-.20282.002-.39139.23965-.56781.2406-.20984.00112-.4023-.18659-.5742-.1866-.22124,0-.40832-.42332-.56548-.42444a1.34579,1.34579,0,0,0-.69953.33034c-.01908.29042.43927.30763.43206.59859-.0072.29031-.05743.28907-.06462.57938s-.02052.29-.02772.58032c-.00722.29129-.51645.27866-.52367.56995-.0072.2908.08042.293.07321.58378-.0072.29058-.20535.28567-.21256.57626-.00719.29009.40139.30022.3942.59032-.00723.29161-.13416.28846-.14138.58008-.00724.29206.12729.29539.12005.58746-.00726.29288-.06908.29135-.07634.58423s.19093.27011.2242.56119c.08169.002.04979.141.34192.14445.15729.00187.34742-.39813.56415-.397.171.0009.35877.382.56615.382.17749,0,.3694.16232.57317.16135.18062-.00086.368-.514.569-.51579.18274-.00165.3779.38816.5773.38559.18427-.00237.37142-.28735.56977-.29063.18542-.00306.37386-.13561.57147-.13956.18632-.00372.381.1608.57808.15622.187-.00435.37272-.22922.56933-.2344.18762-.005.3784-.01623.57466-.022.18809-.00553.38736.24273.58333.23639.18832-.00608.37636-.11731.5719-.12418.18852-.00662.382.04233.57716.03494.18869-.00714.39267.29489.58754.287.18884-.00765.36479-.39249.55939-.40088.189-.00815.40206.463.59642.45412.18911-.00863.35207-.62784.54624-.63719.18921-.00911.37939-.0308.57338-.04061.18931-.00957.38888.147.58271.13671.18939-.01.38012-.02768.5738-.03839.18948-.01048.409.47112.6025.46.18955-.01092.36492-.30313.55835-.31471.18961-.01136.35976-.3671.55308-.37912.18967-.01178.4.2797.59318.26727.18973-.01221.36129-.32283.55441-.33569.18977-.01263.388.08363.581.07037.18981-.013.41211.41594.60506.40227.18986-.01345.37217-.15827.565-.17234.1899-.01386.39683.17662.58963.16215.18992-.01425.3309-.6901.52362-.705.18833-.01453.39554.20116.58654.186.18842-.01491.36811-.15061.55911-.16612.1885-.0153.40189.25895.59289.24307.18858-.01569.34616-.41118.53716-.42744.18866-.01607.40662.2978.59762.28116.18872-.01644.36658-.168.55758-.185.18879-.01682.40843.29557.59942.27818.18885-.01719.3954.14011.5864.12235.1889-.01756.36987-.13764.56086-.15576.189-.01793.346-.38139.537-.39987.189-.01829.39811.15817.58909.13933.18905-.01865.37984-.0322.57082-.0514.1891-.019.36369-.19136.55467-.21092.18913-.01937.35712-.25009.54809-.27.18917-.01973.42124.36015.6122.33989.1892-.02009.39817.13171.58912.11109.18923-.02043.30925-.68483.5002-.7058.18926-.02078.434.45284.625.43152.18929-.02113.32149-.55589.51241-.57755.18931-.02148.38925.04718.58016.02517.18933-.02182.45293.58745.64383.56511.18935-.02217.30029-.7167.49118-.73939.18937-.02251.39211.06348.583.04046.18939-.02285.369-.12929.55986-.15265.1894-.02319.39237.06047.58321.03676.18941-.02353.41854.26444.60936.2404.18942-.02386.33055-.43371.52136-.45808.18942-.0242.42424.29959.615.27488.18943-.02453.38419-.01555.575-.04059.18944-.02486.33361-.3974.52435-.42277.18944-.02519.36123-.184.552-.20971.18944-.02553.37179-.10385.56249-.12987.18944-.02586.42593.28858.6166.26222.18945-.02618.35946-.19542.55011-.2221.18944-.02651.40538.13172.596.10471.18943-.02683.32579-.42833.51639-.45566.18943-.02716.4849.67654.67548.64889.18942-.02749.3576-.208.54815-.236.18942-.02781.404.10762.59456.07932.1894-.02813.27237-.77289.46286-.80151.18939-.02845.37561-.0778.56608-.10674.18938-.02877.3993.07643.58973.04717.18833-.02894.39692.0715.58628.04209.18835-.02926.41108.158.60045.12825.18838-.02958.38627-.00383.57565-.03389.1884-.02989.3947.04671.58408.01634.18842-.03022.3375-.30941.52689-.3401.18844-.03054.361-.16184.55035-.19284.18845-.03086.33371-.32537.5231-.35669.18847-.03117.41585.17083.60524.13919.18849-.03149.38464-.01954.574-.0515.1885-.03181.35073-.22016.54012-.25243.1885-.03212.44177.31136.63116.27877.18852-.03243.33681-.30079.52619-.33369.18852-.03275.33663-.298.526-.33122.18852-.03307.46405.42544.65342.39191.18853-.03338.34-.27851.52937-.31235.18853-.03369.43556.25458.62491.22043.18854-.034.26414-.6937.45348-.72816.18854-.03432.502.61226.69138.57748.18853-.03462.24018-.8134.42951-.84848.18852-.03494.46358.394.65289.35857.18852-.03525.29081-.53063.4801-.56634.18852-.03556.40891.09746.59819.06144.18851-.03587.45984.35944.6491.32312.18851-.03618.27754-.59021.46678-.62684.18849-.03649.44115.25613.63038.21919.18848-.0368.33529-.28755.5245-.3248.18846-.0371.33535-.28417.52453-.32172.18846-.03742.4273.17817.61646.14031.18844-.03772.35833-.16818.54746-.20635.18842-.038.40269.051.5918.01247.18841-.03833.3734-.09436.56248-.13314.18752-.03846.42631.17016.61449.13126.18756-.03878.28542-.51074.47363-.55.18758-.03908.46855.36713.65678.3276.1876-.0394.3783-.067.56654-.10688.18763-.03971.35614-.172.5444-.21212.18765-.04.34036-.24477.52864-.28524.18767-.04033.42157.13192.60986.09114.18769-.04064.40886.06971.59716.02862.18771-.041.23862-.70772.42693-.74912.18773-.04127.54147.66819.72979.62648.18774-.04158.264-.58712.45234-.62914.18775-.04189.38842-.02694.57676-.06927.18776-.0422.41538.0906.60372.048.18777-.04251.31324-.36049.50158-.40344.18778-.04282.336-.25806.52436-.30132.18778-.04313.37657-.081.56491-.12452.18779-.04344.42795.13886.61628.095.18779-.04375.37226-.10231.56059-.1465.18779-.04406.422.1079.61034.06341.187-.04418.43311.15829.62063.11368.18707-.0445.24271-.64121.4303-.68614.18714-.04483.4661.29129.65376.246.18721-.04515.37331-.09718.561-.14276.18727-.04548.31759-.32619.50538-.3721.18735-.0458.4814.34134.66925.2951.1874-.04612.34749-.206.53539-.25259.18747-.04644.27732-.487.46528-.53388.18752-.04677.468.27672.656.22952.18758-.04709.284-.45747.472-.505.18763-.04742.39066-.03442.57877-.08227.18694-.04755.45862.23535.646.18737.18713-.04791.24322-.607.43082-.65531.18731-.04826.46036.23475.64813.18606.18749-.04862.31231-.33884.50026-.38789.18766-.049.33232-.26159.52044-.311.187-.04913.41053.04066.598-.0089s.35746-.16484.5454-.21483.50185.3713.69023.32088.2633-.52444.45212-.57529.51073.38973.7.33844.38786-.071.57755-.12269c.18618-.05077.22778-.63025.41385-.68131s.41568.05685.60167.00551.37764-.082.56355-.13367.46727.23851.6531.18658.35325-.17121.539-.22343.24861-.54043.43427-.59294.42148.07241.60706.01961.3755-.09039.561-.14348.31373-.30509.49914-.35847.49577.32582.68109.27216.41.0264.59526-.02756.18432-.74548.36947-.79973.4058.01345.59087-.04109.45361.17337.63859.11854.26838-.45126.45327-.50638.53756.45047.72237.39506.16175-.8022.34647-.8579.44256.13159.62719.0756.46439.20043.64893.14415.30391-.32634.48836-.38291.38224-.07.56661-.12681.37393-.09722.55821-.15437.404-.001.58819-.05841.38147-.07407.56556-.1318.3929-.0383.5769-.09632.359-.14614.54288-.20445.30094-.32785.48475-.38645.44047.10973.62419.05084.26025-.45232.44392-.51151.51077.32446.69436.265.2395-.513.423-.57276.27879-.38883.46218-.44889.36527-.12329.54857-.18364.34284-.191.526-.25166.4683.18675.6514.12582.4177.03227.6007-.02894.38577-.06432.56867-.12583.31107-.28588.49387-.34767.4423.102.625.0399.29075-.344.47335-.40637.36956-.11221.55206-.17487.33441-.21417.51681-.27712.26008-.42752.44238-.49076.58915.51931.77134.45578.141-.76584.32315-.82966.51551.30373.6975.23962.20946-.56512.39135-.62951.43182.06421.6136-.00048.45447.12562.63615.06065.31383-.26824.4954-.3335.47361.1755.65508.11.17056-.66236.35192-.72819.556.39945.73726.33333.14452-.72816.32567-.79457.39113-.05293.57217-.11963.32467-.23321.5056-.3002.50844.2617.68926.19443.42715.04043.60787-.02714.20225-.55988.38285-.62773.42248.02757.603-.04056.27331-.36722.45369-.43565.34514-.17656.52541-.24527.60359.49863.78375.42963.35224-.16055.53229-.22984.215-.51522.39494-.5848.40077-.03355.58059-.10341.33053-.21447.51024-.28462.49784.21285.67744.14241.16555-.63372.345-.70445.40389-.02711.58325-.09812.27838-.34371.45762-.415.5353.301.71443.22945.34635-.17366.52536-.24553.18607-.57072.365-.64289.41681.00263.59559-.06982.38444-.07827.5631-.151.30749-.267.486-.34.3424-.18094.52082-.25425.4249.0193.6032-.0543.24845-.40777.42663-.48165.47306.13384.65112.05967.27446-.34335.45239-.4178.34832-.16588.52613-.24062.60015.43073.77784.3557.2113-.49128.38887-.5666.47093.12118.64838.04558.21278-.48445.3901-.56033.24876-.39808.426-.47428.49082.16472.668.08824.31617-.24077.49316-.31754.26479-.35793.44166-.435.34975-.16193.52649-.23927.56845.33575.74506.25812.34213-.18122.51861-.25913.18291-.54008.35926-.61827.38218-.08926.5584-.16773.33242-.20105.50851-.27982.58606.36393.762.28488.29607-.28328.4719-.36262.13684-.63357.31253-.71319.52532.22412.70089.14421.34605-.17135.52148-.25154.24087-.40037.41616-.48084.363-.13341.53816-.21416.46717.09133.64219.01029.19055-.50566.36544-.587.41253-.0274.58728-.109.26632-.34027.44094-.42216.411-.03158.58548-.11376.34591-.1703.52025-.25276.52508.20695.69928.12421.19335-.49158.36741-.57461.23077-.41073.40469-.49405.67493.51465.84871.431.08668-.70875.26032-.79263.29511-.27455.46861-.35871.58887.32936.76223.24491.35163-.16.52489-.24476.14612-.57841.31924-.66345.47759.097.65057.01168.31213-.23924.485-.32484.45347.04552.62614-.04037.21075-.44222.38327-.52839.363-.13631.53541-.22276.26741-.32647.43964-.4132.40753-.04806.57961-.13507.244-.3712.4159-.45849.42161-.02112.59339-.1087.37-.12321.5416-.21107.54612.21909.71759.13095.02547-.7929.1968-.88132.36087-.14065.532-.22935.37383-.11627.54489-.20528.28609-.28463.457-.37392.30129-.25474.472-.3443.5352.19007.70578.10023.186-.47328.35638-.56339.58453.27983.75478.18944.12054-.59419.29063-.68486.2842-.28506.45412-.376.64279.38291.81259.29166.06985-.68341.23948-.77492.5174.14694.68685.05515.23431-.37608.40358-.46813.4304-.01531.59948-.10763.50437.11841.67327.02582.33046-.19985.49918-.29271c.16834-.09265.056-.69446.2242-.78738s.30778-.23665.47578-.32985.63721.35525.80506.26176.07833-.64851.246-.74228.34822-.16411.51575-.25816.59589.27515.76326.18082-.05034-.87061.11687-.96522.65.36761.817.27272.32045-.2146.48733-.30977.31891-.2171.48564-.31255.43078-.02224.59735-.118.16737-.48008.33377-.57609.19992-.42164.36616-.51793.44005-.00692.60613-.10349.2187-.38753.38461-.48438.48689.07163.65264-.0255.29978-.2485.46536-.3459.3701-.129.53552-.22668.10455-.57744.2698-.6754.65373.34831.81881.25007.18866-.43434.35358-.53287.20661-.40258.37136-.50138.4863.06358.65088-.0355.47826.04828.64267-.05107.12442-.53691.28866-.63654.29553-.25333.45961-.35324.56824.19325.73215.09307.28166-.27681.44539-.37727.35774-.15271.52131-.25345.24369-.33753.40709-.43855.03917-.66608.20239-.76737.55734.16925.72039.06768.3097-.2296.47257-.33145.17039-.45137.33309-.55349.50023.074.66276-.02834.10345-.55549.2658-.65815.67785.35208.84.24914.3458-.17326.5078-.27647.19113-.41538.353-.51886.12283-.52022.28448-.624.50551.07607.667-.028.21064-.382.37194-.48633.30427-.23646.46539-.34105.61575.24185.77669.137.282-.27181.44282-.37693.11181-.53073.27239-.63613.49258.04963.653-.056.21909-.3659.37932-.47184.512.07656.672-.02965-.01041-.70983.14945-.81632.58388.18276.74356.076.04486-.62345.20436-.73048.39723-.09722.55655-.20452.47431.016.63345-.09161.06233-.593.22128-.70085.37017-.13813.52894-.24624.30308-.237.46168-.34535.499.04881.65739-.05985.18042-.41588.33865-.52481.4083-.0846.56634-.1938.13332-.48213.29118-.59159.61447.21118.77215.10145.24593-.3196.40341-.42959.29438-.24976.45168-.36.289-.25714.44614-.36767.23423-.33449.39115-.44528.224-.34807.38076-.45913.63351.22863.79005.11731.33226-.1967.4886-.30829.32521-.20672.48137-.31858-.1165-.82128.03947-.9334.66026.25964.816.14726-.049-.72339.10658-.836.44887-.03466.60426-.14758.42209-.07274.57729-.18591.41659-.08135.5716-.19479.07842-.54279.23323-.65649.52668.06758.6813-.04638.24747-.31195.40189-.42618.36058-.159.51481-.27349.39346-.11535.54749-.2301.25492-.30147.40875-.41648-.05734-.71714.09629-.83242.46106-.02522.6145-.14075.27944-.267.43268-.38282.21078-.3573.36382-.47336.61473.17439.76758.05808.01939-.608.172-.72459.60408.15753.75653.04069.17009-.4095.32233-.52659.12852-.46213.28056-.57948.52938.057.68122-.0606.035-.581.18667-.6989.66392.22765.81537.10953.00077-.62278.152-.74117.71535.28961.86639.171-.00446-.62721.14638-.74611.37116-.14964.52179-.2688.28674-.25661.43717-.376.51141.02555.66163-.09411.35394-.17329.504-.29321-.10765-.74916.04216-.86934.347-.18088.49658-.30131.27926-.2651.42866-.38579.4685-.03148.6177-.15243.50663.01394.65562-.10726-.14906-.79109-.00027-.91254.35147-.17624.5-.298.38965-.13026.538-.25222.46-.04575.60816-.168.08808-.49647.236-.61893.21539-.34144.36313-.46416.23157-.32137.3791-.44434.7813.33643.92862.21321.01507-.58054.16218-.704.22635-.32737.37325-.45109.26467-.28149.41135-.40546.27805-.26545.42453-.38967.27311-.27113.41937-.3956.59927.111.74532-.01374.26323-.28367.40907-.40864.28813-.25448.43375-.37969.03045-.5531.17586-.67856.46859-.045.61378-.17068.2376-.31227.38258-.43823.07839-.49446.22316-.62066.51639.00789.66094-.11856.52253.01309.66686-.11361.05258-.52227.1967-.64921.20212-.35123.346-.47842.30749-.23176.45117-.3592.15975-.39792.30322-.5256.59016.085.7334-.04291.14987-.40866.2929-.53682.15433-.40266.29714-.53107.4713-.05035.61389-.179.17708-.37674.31945-.50564.562.04781.70418-.08133.15758-.398.29951-.52735.18059-.37185.3223-.50148.14845-.4061.28994-.536.274-.26884.41523-.39894.34253-.19457.48357-.32492.30446-.23608.44529-.36667.48547-.04171.62607-.17254.28443-.25854.42481-.38961-.02685-.59081.1133-.72212.23873-.30607.37867-.43762.43744-.09512.57715-.2269.48849-.04229.628-.1743-.00053-.55868.13871-.69093.6258.10052.76482-.032.0486-.50555.1874-.63827.24484-.29942.38341-.43238.55986.028.69821-.10521-.2004-.76094-.06228-.89438.45933-.077.59722-.21071.51821-.01781.65588-.15172.0495-.49972.18695-.63387.08128-.4657.21849-.60009.76186.22818.89885.09356.166-.37946.30279-.51431.423-.119.55951-.25412-.05691-.60342.07939-.73874.33-.21279.46607-.34834.01271-.53054.14853-.66631.39-.15265.52557-.28866.66177.11658.79714-.01966.161-.38194.29616-.51841.06949-.47154.2044-.60825.53829-.00916.673-.1461-.04835-.586.08611-.72314.36677-.17837.501-.31578.23669-.30559.37066-.44321.32983-.21506.46358-.35292.49542-.0554.629-.1935.05981-.47669.19311-.615.41949-.13.55257-.26854-.0188-.55048.114-.6893.27116-.2721.40379-.41115.34695-.15361.47935-.2929c.27328.105.127.29207.35562.475.22779.18229.50741-.16713.7352.01516.22752.18208.16472.26055.39225.44263.22787.18236.08373.36247.3116.54483.22892.18319.26643.13632.49534.31952.22841.18278.22015.19311.44856.3759s.33094.05468.55935.23747c.22918.1834.09931.34568.32848.52908.22768.1822.20234.21387.43.39607.22881.1831.416-.05079.64479.13232.22842.1828.23867.17.4671.35279.22962.18375.29981.096.52943.27978.23.184-.05138.53562.17859.71965.23062.18456.212.20787.44259.39242s.25786.28573.53407.18109c.27162-.10291.39491-.1746.4361-.46213s.0772-.28234.11838-.56985-.16906-.3177-.12786-.60529c.04122-.2878-.43826-.35648-.397-.64427.04127-.28812.5754-.21161.61667-.49973.04134-.28858-.37253-.34786-.33119-.63644.04141-.28911.55584-.21542.59726-.50453.04134-.28863-.15507-.31676-.11372-.60539.04129-.2883-.338-.34262-.29667-.63093.04128-.28815.29916-.25121.34044-.53936s.349-.2441.3903-.53228c.04131-.28842-.57482-.37667-.53351-.66509.04138-.28886.65187-.20141.69325-.49027.04142-.28917-.31627-.3404-.27485-.62957.04136-.28873.12846-.27625.16982-.565.04134-.28856.25435-.25805.29568-.54661s.09642-.28082.13777-.56952c.04106-.2866-.6258-.38212-.58475-.66873.0411-.28689.15514-.27056.19624-.55745.04119-.2876.28162-.25316.32282-.54075.04136-.28875-.01549-.29689.02587-.58564.04149-.28965-.0174-.29809.0241-.58774.04134-.28865.43851-.23176.47986-.52041.0413-.28832-.078-.30541-.0367-.59373.04137-.28876-.48887-.36472-.4475-.65348.04155-.29008.74069-.18993.78225-.48.04146-.28944-.44311-.35885-.40164-.6483s.47382-.22752.51528-.517c.0416-.29041-.60638-.38323-.56478-.67363.04153-.28993.23091-.26281.27244-.55274.0415-.28971-.06722-.30528-.02572-.595.04143-.28922.537-.21824.57839-.50746.04165-.29074-.20137-.32555-.15973-.61629.04172-.29119.315-.252.3567-.54323.04183-.292-.21151-.33071-.13068-.6144C253.5257.40026,253.60423.40689,253.38733.207Z" fill="#102b4c"/></g></g></svg>