<?xml version="1.0" encoding="UTF-8"?><svg version="1.1" id="Слой_1" xmlns="http://www.w3.org/2000/svg" xmlns:xlink="http://www.w3.org/1999/xlink" x="0px" y="0px" width="189.09px" height="157.992px" viewBox="0 0 189.09 157.992" style="enable-background:new 0 0 189.09 157.992;" xml:space="preserve">
<g>
	<g>
		<path style="fill:#FF2E93;" d="M63.652,157.992c-1.104,0-2-0.896-2-2V2c0-1.104,0.896-2,2-2s2,0.896,2,2v153.992
			C65.652,157.096,64.757,157.992,63.652,157.992z"/>
	</g>
	<g>
		<path style="fill:#00E6B3;" d="M97.995,157.992c-1.104,0-2-0.896-2-2V2c0-1.104,0.896-2,2-2s2,0.896,2,2v153.992
			C99.995,157.096,99.1,157.992,97.995,157.992z"/>
	</g>
	<g>
		<path style="fill:#FF2E93;" d="M133.59,157.992c-1.104,0-2-0.896-2-2V2c0-1.104,0.896-2,2-2s2,0.896,2,2v153.992
			C135.59,157.096,134.694,157.992,133.59,157.992z"/>
	</g>
	<g>
		<g>
			<path style="fill:#00E6B3;" d="M179.09,133.549h-4c-1.104,0-2-0.896-2-2s0.896-2,2-2h4c1.104,0,2,0.896,2,2
				S180.194,133.549,179.09,133.549z"/>
		</g>
	</g>
	<g>
		<g>
			<path style="fill:#00E6B3;" d="M167.038,133.549h-8.052c-1.104,0-2-0.896-2-2s0.896-2,2-2h8.052c1.104,0,2,0.896,2,2
				S168.143,133.549,167.038,133.549z M150.935,133.549h-8.053c-1.104,0-2-0.896-2-2s0.896-2,2-2h8.053c1.104,0,2,0.896,2,2
				S152.039,133.549,150.935,133.549z M134.83,133.549h-8.052c-1.104,0-2-0.896-2-2s0.896-2,2-2h8.052c1.104,0,2,0.896,2,2
				S135.935,133.549,134.83,133.549z M118.727,133.549h-8.052c-1.104,0-2-0.896-2-2s0.896-2,2-2h8.052c1.104,0,2,0.896,2,2
				S119.831,133.549,118.727,133.549z M102.623,133.549H94.57c-1.104,0-2-0.896-2-2s0.896-2,2-2h8.053c1.104,0,2,0.896,2,2
				S103.728,133.549,102.623,133.549z M86.519,133.549h-8.052c-1.104,0-2-0.896-2-2s0.896-2,2-2h8.052c1.104,0,2,0.896,2,2
				S87.623,133.549,86.519,133.549z M70.415,133.549h-8.052c-1.104,0-2-0.896-2-2s0.896-2,2-2h8.052c1.104,0,2,0.896,2,2
				S71.52,133.549,70.415,133.549z M54.311,133.549h-8.052c-1.104,0-2-0.896-2-2s0.896-2,2-2h8.052c1.104,0,2,0.896,2,2
				S55.415,133.549,54.311,133.549z M38.207,133.549h-8.052c-1.104,0-2-0.896-2-2s0.896-2,2-2h8.052c1.104,0,2,0.896,2,2
				S39.312,133.549,38.207,133.549z M22.104,133.549h-8.052c-1.104,0-2-0.896-2-2s0.896-2,2-2h8.052c1.104,0,2,0.896,2,2
				S23.208,133.549,22.104,133.549z"/>
		</g>
	</g>
	<g>
		<g>
			<path style="fill:#00E6B3;" d="M6,133.549H2c-1.104,0-2-0.896-2-2s0.896-2,2-2h4c1.104,0,2,0.896,2,2S7.104,133.549,6,133.549z"/>
		</g>
	</g>
	<g>
		<g>
			<path style="fill:#FFFFFF;" d="M187.09,99.389h-4c-1.104,0-2-0.896-2-2s0.896-2,2-2h4c1.104,0,2,0.896,2,2
				S188.194,99.389,187.09,99.389z"/>
		</g>
	</g>
	<g>
		<g>
			<path style="fill:#FF2E93;" d="M175.038,99.389h-8.052c-1.104,0-2-0.896-2-2s0.896-2,2-2h8.052c1.104,0,2,0.896,2,2
				S176.143,99.389,175.038,99.389z M158.935,99.389h-8.053c-1.104,0-2-0.896-2-2s0.896-2,2-2h8.053c1.104,0,2,0.896,2,2
				S160.039,99.389,158.935,99.389z M142.83,99.389h-8.052c-1.104,0-2-0.896-2-2s0.896-2,2-2h8.052c1.104,0,2,0.896,2,2
				S143.935,99.389,142.83,99.389z M126.727,99.389h-8.052c-1.104,0-2-0.896-2-2s0.896-2,2-2h8.052c1.104,0,2,0.896,2,2
				S127.831,99.389,126.727,99.389z M110.623,99.389h-8.053c-1.104,0-2-0.896-2-2s0.896-2,2-2h8.053c1.104,0,2,0.896,2,2
				S111.728,99.389,110.623,99.389z M94.519,99.389h-8.052c-1.104,0-2-0.896-2-2s0.896-2,2-2h8.052c1.104,0,2,0.896,2,2
				S95.623,99.389,94.519,99.389z M78.415,99.389h-8.052c-1.104,0-2-0.896-2-2s0.896-2,2-2h8.052c1.104,0,2,0.896,2,2
				S79.52,99.389,78.415,99.389z M62.311,99.389h-8.052c-1.104,0-2-0.896-2-2s0.896-2,2-2h8.052c1.104,0,2,0.896,2,2
				S63.415,99.389,62.311,99.389z M46.207,99.389h-8.052c-1.104,0-2-0.896-2-2s0.896-2,2-2h8.052c1.104,0,2,0.896,2,2
				S47.312,99.389,46.207,99.389z M30.104,99.389h-8.052c-1.104,0-2-0.896-2-2s0.896-2,2-2h8.052c1.104,0,2,0.896,2,2
				S31.208,99.389,30.104,99.389z"/>
		</g>
	</g>
	<g>
		<g>
			<path style="fill:#FFFFFF;" d="M14,99.389h-4c-1.104,0-2-0.896-2-2s0.896-2,2-2h4c1.104,0,2,0.896,2,2S15.104,99.389,14,99.389z"/>
		</g>
	</g>
	<g>
		<g>
			<path style="fill:#00E6B3;" d="M179.09,65.23h-4c-1.104,0-2-0.896-2-2s0.896-2,2-2h4c1.104,0,2,0.896,2,2
				S180.194,65.23,179.09,65.23z"/>
		</g>
	</g>
	<g>
		<g>
			<path style="fill:#00E6B3;" d="M167.038,65.23h-8.052c-1.104,0-2-0.896-2-2s0.896-2,2-2h8.052c1.104,0,2,0.896,2,2
				S168.143,65.23,167.038,65.23z M150.935,65.23h-8.053c-1.104,0-2-0.896-2-2s0.896-2,2-2h8.053c1.104,0,2,0.896,2,2
				S152.039,65.23,150.935,65.23z M134.83,65.23h-8.052c-1.104,0-2-0.896-2-2s0.896-2,2-2h8.052c1.104,0,2,0.896,2,2
				S135.935,65.23,134.83,65.23z M118.727,65.23h-8.052c-1.104,0-2-0.896-2-2s0.896-2,2-2h8.052c1.104,0,2,0.896,2,2
				S119.831,65.23,118.727,65.23z M102.623,65.23H94.57c-1.104,0-2-0.896-2-2s0.896-2,2-2h8.053c1.104,0,2,0.896,2,2
				S103.728,65.23,102.623,65.23z M86.519,65.23h-8.052c-1.104,0-2-0.896-2-2s0.896-2,2-2h8.052c1.104,0,2,0.896,2,2
				S87.623,65.23,86.519,65.23z M70.415,65.23h-8.052c-1.104,0-2-0.896-2-2s0.896-2,2-2h8.052c1.104,0,2,0.896,2,2
				S71.52,65.23,70.415,65.23z M54.311,65.23h-8.052c-1.104,0-2-0.896-2-2s0.896-2,2-2h8.052c1.104,0,2,0.896,2,2
				S55.415,65.23,54.311,65.23z M38.207,65.23h-8.052c-1.104,0-2-0.896-2-2s0.896-2,2-2h8.052c1.104,0,2,0.896,2,2
				S39.312,65.23,38.207,65.23z M22.104,65.23h-8.052c-1.104,0-2-0.896-2-2s0.896-2,2-2h8.052c1.104,0,2,0.896,2,2
				S23.208,65.23,22.104,65.23z"/>
		</g>
	</g>
	<g>
		<g>
			<path style="fill:#00E6B3;" d="M6,65.23H2c-1.104,0-2-0.896-2-2s0.896-2,2-2h4c1.104,0,2,0.896,2,2S7.104,65.23,6,65.23z"/>
		</g>
	</g>
	<g>
		<g>
			<path style="fill:#FF2E93;" d="M187.09,31.071h-4c-1.104,0-2-0.896-2-2s0.896-2,2-2h4c1.104,0,2,0.896,2,2
				S188.194,31.071,187.09,31.071z"/>
		</g>
	</g>
	<g>
		<g>
			<path style="fill:#FF2E93;" d="M175.038,31.071h-8.052c-1.104,0-2-0.896-2-2s0.896-2,2-2h8.052c1.104,0,2,0.896,2,2
				S176.143,31.071,175.038,31.071z M158.935,31.071h-8.053c-1.104,0-2-0.896-2-2s0.896-2,2-2h8.053c1.104,0,2,0.896,2,2
				S160.039,31.071,158.935,31.071z M142.83,31.071h-8.052c-1.104,0-2-0.896-2-2s0.896-2,2-2h8.052c1.104,0,2,0.896,2,2
				S143.935,31.071,142.83,31.071z M126.727,31.071h-8.052c-1.104,0-2-0.896-2-2s0.896-2,2-2h8.052c1.104,0,2,0.896,2,2
				S127.831,31.071,126.727,31.071z M110.623,31.071h-8.053c-1.104,0-2-0.896-2-2s0.896-2,2-2h8.053c1.104,0,2,0.896,2,2
				S111.728,31.071,110.623,31.071z M94.519,31.071h-8.052c-1.104,0-2-0.896-2-2s0.896-2,2-2h8.052c1.104,0,2,0.896,2,2
				S95.623,31.071,94.519,31.071z M78.415,31.071h-8.052c-1.104,0-2-0.896-2-2s0.896-2,2-2h8.052c1.104,0,2,0.896,2,2
				S79.52,31.071,78.415,31.071z M62.311,31.071h-8.052c-1.104,0-2-0.896-2-2s0.896-2,2-2h8.052c1.104,0,2,0.896,2,2
				S63.415,31.071,62.311,31.071z M46.207,31.071h-8.052c-1.104,0-2-0.896-2-2s0.896-2,2-2h8.052c1.104,0,2,0.896,2,2
				S47.312,31.071,46.207,31.071z M30.104,31.071h-8.052c-1.104,0-2-0.896-2-2s0.896-2,2-2h8.052c1.104,0,2,0.896,2,2
				S31.208,31.071,30.104,31.071z"/>
		</g>
	</g>
	<g>
		<g>
			<path style="fill:#FFFFFF;" d="M14,31.071h-4c-1.104,0-2-0.896-2-2s0.896-2,2-2h4c1.104,0,2,0.896,2,2S15.104,31.071,14,31.071z"/>
		</g>
	</g>
</g>
</svg>